<svg width="46" height="58" viewBox="0 0 46 58" fill="none" xmlns="http://www.w3.org/2000/svg">
<path d="M45.74 14.27C45.74 16.8367 45.0867 19.2867 43.78 21.62C42.52 23.9533 40.7933 26.0067 38.6 27.78C36.4533 29.5067 33.91 30.8833 30.97 31.91C28.0767 32.9367 24.9967 33.45 21.73 33.45C20.5633 33.45 19.63 33.31 18.93 33.03C18.2767 32.7033 17.53 32.0967 16.69 31.21C14.3567 36.2967 12.4433 40.9867 10.95 45.28C9.50333 49.5267 8.36 53.6567 7.52 57.67C5.74667 57.25 4.3 56.5033 3.18 55.43C2.06 54.4033 1.03333 53.0967 0.100001 51.51C0.566667 50.6233 1.12667 49.4567 1.78 48.01C2.43333 46.5633 3.22667 44.79 4.16 42.69C5.09333 40.5433 6.16667 38 7.38 35.06C8.64 32.0733 10.11 28.5967 11.79 24.63C12.5367 22.81 13.19 21.2233 13.75 19.87C14.31 18.5167 14.8 17.2567 15.22 16.09C15.64 14.8767 16.0133 13.6867 16.34 12.52C16.7133 11.3533 17.0867 10.07 17.46 8.67C15.2667 9.37 13.2367 10.1867 11.37 11.12C9.55 12.0533 8.03333 13.0333 6.82 14.06C6.4 13.78 5.95667 13.36 5.49 12.8C5.07 12.24 4.67333 11.6333 4.3 10.98C3.92667 10.28 3.6 9.58 3.32 8.88C3.04 8.18 2.87667 7.55 2.83 6.99C4.18333 6.05666 5.86333 5.19333 7.87 4.4C9.87667 3.60667 12.0233 2.93 14.31 2.37C16.5967 1.76333 18.9533 1.29666 21.38 0.969998C23.8533 0.64333 26.21 0.479996 28.45 0.479996C31.11 0.479996 33.5133 0.829997 35.66 1.53C37.8067 2.18333 39.6267 3.11666 41.12 4.33C42.6133 5.54333 43.7567 6.99 44.55 8.67C45.3433 10.35 45.74 12.2167 45.74 14.27ZM33.28 5.87C31.5067 5.87 29.6867 6.01 27.82 6.29L28.66 7.55C28.1933 8.15666 27.61 9.06666 26.91 10.28C26.21 11.4933 25.44 12.9633 24.6 14.69C23.76 16.37 22.8267 18.26 21.8 20.36C20.82 22.46 19.77 24.6767 18.65 27.01C22.29 27.01 25.6033 26.6833 28.59 26.03C31.5767 25.33 34.12 24.3967 36.22 23.23C38.3667 22.0167 40.0233 20.6167 41.19 19.03C42.4033 17.4433 43.01 15.74 43.01 13.92C43.01 11.4933 42.1933 9.55667 40.56 8.11C38.9267 6.61666 36.5 5.87 33.28 5.87Z" fill="url(#paint0_linear_797_200)"/>
<defs>
<linearGradient id="paint0_linear_797_200" x1="14" y1="10.5" x2="14" y2="52" gradientUnits="userSpaceOnUse">
<stop stop-color="#FF6464"/>
<stop offset="1" stop-color="#FFB744"/>
</linearGradient>
</defs>
</svg>
