<svg width="62" height="14" viewBox="0 0 62 14" fill="none" xmlns="http://www.w3.org/2000/svg">
<path d="M9.948 4.454C9.948 4.96733 9.81733 5.45733 9.556 5.924C9.304 6.39067 8.95867 6.80133 8.52 7.156C8.09067 7.50133 7.582 7.77667 6.994 7.982C6.41533 8.18733 5.79933 8.29 5.146 8.29C4.91267 8.29 4.726 8.262 4.586 8.206C4.45533 8.14067 4.306 8.01933 4.138 7.842C3.67133 8.85933 3.28867 9.79733 2.99 10.656C2.70067 11.5053 2.472 12.3313 2.304 13.134C1.94933 13.05 1.66 12.9007 1.436 12.686C1.212 12.4807 1.00667 12.2193 0.82 11.902C0.913333 11.7247 1.02533 11.4913 1.156 11.202C1.28667 10.9127 1.44533 10.558 1.632 10.138C1.81867 9.70867 2.03333 9.2 2.276 8.612C2.528 8.01467 2.822 7.31933 3.158 6.526C3.30733 6.162 3.438 5.84467 3.55 5.574C3.662 5.30333 3.76 5.05133 3.844 4.818C3.928 4.57533 4.00267 4.33733 4.068 4.104C4.14267 3.87067 4.21733 3.614 4.292 3.334C3.85333 3.474 3.44733 3.63733 3.074 3.824C2.71 4.01067 2.40667 4.20667 2.164 4.412C2.08 4.356 1.99133 4.272 1.898 4.16C1.814 4.048 1.73467 3.92667 1.66 3.796C1.58533 3.656 1.52 3.516 1.464 3.376C1.408 3.236 1.37533 3.11 1.366 2.998C1.63667 2.81133 1.97267 2.63867 2.374 2.48C2.77533 2.32133 3.20467 2.186 3.662 2.074C4.11933 1.95267 4.59067 1.85933 5.076 1.794C5.57067 1.72867 6.042 1.696 6.49 1.696C7.022 1.696 7.50267 1.766 7.932 1.906C8.36133 2.03667 8.72533 2.22333 9.024 2.466C9.32267 2.70867 9.55133 2.998 9.71 3.334C9.86867 3.67 9.948 4.04333 9.948 4.454ZM7.456 2.774C7.10133 2.774 6.73733 2.802 6.364 2.858L6.532 3.11C6.43867 3.23133 6.322 3.41333 6.182 3.656C6.042 3.89867 5.888 4.19267 5.72 4.538C5.552 4.874 5.36533 5.252 5.16 5.672C4.964 6.092 4.754 6.53533 4.53 7.002C5.258 7.002 5.92067 6.93667 6.518 6.806C7.11533 6.666 7.624 6.47933 8.044 6.246C8.47333 6.00333 8.80467 5.72333 9.038 5.406C9.28067 5.08867 9.402 4.748 9.402 4.384C9.402 3.89867 9.23867 3.51133 8.912 3.222C8.58533 2.92333 8.1 2.774 7.456 2.774ZM10.0264 13.064C9.57842 12.9333 9.26576 12.8027 9.08842 12.672C8.92042 12.5413 8.83642 12.378 8.83642 12.182C8.83642 12.0327 8.87842 11.8227 8.96242 11.552C9.04642 11.2813 9.16776 10.964 9.32642 10.6C9.49442 10.2267 9.69042 9.816 9.91442 9.368C10.1478 8.92 10.4091 8.43933 10.6984 7.926C10.4558 7.91667 10.2364 7.912 10.0404 7.912C9.85376 7.90267 9.69976 7.898 9.57842 7.898C9.63442 7.758 9.79309 7.63667 10.0544 7.534C10.3158 7.43133 10.6611 7.34267 11.0904 7.268C11.4544 6.66133 11.8418 6.08267 12.2524 5.532C12.6724 4.98133 13.0924 4.47733 13.5124 4.02C13.9324 3.55333 14.3524 3.14733 14.7724 2.802C15.1924 2.44733 15.5938 2.16733 15.9764 1.962C15.9858 1.89667 15.9904 1.84067 15.9904 1.794C15.9998 1.74733 16.0044 1.71467 16.0044 1.696C16.1351 1.696 16.3078 1.72867 16.5224 1.794C16.7464 1.85933 16.9611 1.93867 17.1664 2.032C17.3811 2.12533 17.5678 2.22333 17.7264 2.326C17.8944 2.41933 17.9878 2.49867 18.0064 2.564C17.6984 3.10533 17.3951 3.91733 17.0964 5C16.7978 6.07333 16.5504 7.36133 16.3544 8.864C16.3078 9.23733 16.2658 9.662 16.2284 10.138C16.2004 10.614 16.1864 11.146 16.1864 11.734C16.1864 11.9393 16.1864 12.1493 16.1864 12.364C16.1864 12.5787 16.1958 12.8027 16.2144 13.036C16.1958 13.0453 16.1771 13.05 16.1584 13.05C16.1398 13.05 16.1024 13.05 16.0464 13.05C15.9158 13.05 15.7618 13.0267 15.5844 12.98C15.4164 12.9427 15.2484 12.8913 15.0804 12.826C14.9218 12.77 14.7818 12.7047 14.6604 12.63C14.5484 12.5553 14.4784 12.49 14.4504 12.434C14.4411 12.3127 14.4364 12.1913 14.4364 12.07C14.4364 11.958 14.4364 11.8367 14.4364 11.706C14.4364 11.1273 14.4551 10.5393 14.4924 9.942C14.5391 9.34467 14.6138 8.72867 14.7164 8.094C14.5858 8.08467 14.4131 8.07533 14.1984 8.066C13.9838 8.04733 13.7411 8.03333 13.4704 8.024C13.2091 8.01467 12.9244 8.00533 12.6164 7.996C12.3178 7.97733 12.0238 7.96333 11.7344 7.954C11.5104 8.374 11.3004 8.794 11.1044 9.214C10.9084 9.62467 10.7404 10.04 10.6004 10.46C10.4418 10.908 10.3111 11.356 10.2084 11.804C10.1151 12.252 10.0544 12.672 10.0264 13.064ZM15.4304 4.65C15.4678 4.51933 15.5098 4.342 15.5564 4.118C15.6124 3.88467 15.6638 3.642 15.7104 3.39C15.4771 3.474 15.2158 3.628 14.9264 3.852C14.6464 4.076 14.3524 4.356 14.0444 4.692C13.7458 5.01867 13.4378 5.392 13.1204 5.812C12.8124 6.22267 12.5138 6.66133 12.2244 7.128C13.0084 7.06267 13.8998 7.02067 14.8984 7.002C14.9731 6.61 15.0524 6.22267 15.1364 5.84C15.2298 5.448 15.3278 5.05133 15.4304 4.65ZM27.9128 4.454C27.9128 4.96733 27.7822 5.45733 27.5208 5.924C27.2688 6.39067 26.9235 6.80133 26.4848 7.156C26.0555 7.50133 25.5468 7.77667 24.9588 7.982C24.3802 8.18733 23.7642 8.29 23.1108 8.29C22.8775 8.29 22.6908 8.262 22.5508 8.206C22.4202 8.14067 22.2708 8.01933 22.1028 7.842C21.6362 8.85933 21.2535 9.79733 20.9548 10.656C20.6655 11.5053 20.4368 12.3313 20.2688 13.134C19.9142 13.05 19.6248 12.9007 19.4008 12.686C19.1768 12.4807 18.9715 12.2193 18.7848 11.902C18.8782 11.7247 18.9902 11.4913 19.1208 11.202C19.2515 10.9127 19.4102 10.558 19.5968 10.138C19.7835 9.70867 19.9982 9.2 20.2408 8.612C20.4928 8.01467 20.7868 7.31933 21.1228 6.526C21.2722 6.162 21.4028 5.84467 21.5148 5.574C21.6268 5.30333 21.7248 5.05133 21.8088 4.818C21.8928 4.57533 21.9675 4.33733 22.0328 4.104C22.1075 3.87067 22.1822 3.614 22.2568 3.334C21.8182 3.474 21.4122 3.63733 21.0388 3.824C20.6748 4.01067 20.3715 4.20667 20.1288 4.412C20.0448 4.356 19.9562 4.272 19.8628 4.16C19.7788 4.048 19.6995 3.92667 19.6248 3.796C19.5502 3.656 19.4848 3.516 19.4288 3.376C19.3728 3.236 19.3402 3.11 19.3308 2.998C19.6015 2.81133 19.9375 2.63867 20.3388 2.48C20.7402 2.32133 21.1695 2.186 21.6268 2.074C22.0842 1.95267 22.5555 1.85933 23.0408 1.794C23.5355 1.72867 24.0068 1.696 24.4548 1.696C24.9868 1.696 25.4675 1.766 25.8968 1.906C26.3262 2.03667 26.6902 2.22333 26.9888 2.466C27.2875 2.70867 27.5162 2.998 27.6748 3.334C27.8335 3.67 27.9128 4.04333 27.9128 4.454ZM25.4208 2.774C25.0662 2.774 24.7022 2.802 24.3288 2.858L24.4968 3.11C24.4035 3.23133 24.2868 3.41333 24.1468 3.656C24.0068 3.89867 23.8528 4.19267 23.6848 4.538C23.5168 4.874 23.3302 5.252 23.1248 5.672C22.9288 6.092 22.7188 6.53533 22.4948 7.002C23.2228 7.002 23.8855 6.93667 24.4828 6.806C25.0802 6.666 25.5888 6.47933 26.0088 6.246C26.4382 6.00333 26.7695 5.72333 27.0028 5.406C27.2455 5.08867 27.3668 4.748 27.3668 4.384C27.3668 3.89867 27.2035 3.51133 26.8768 3.222C26.5502 2.92333 26.0648 2.774 25.4208 2.774ZM27.9913 13.064C27.5433 12.9333 27.2306 12.8027 27.0533 12.672C26.8853 12.5413 26.8013 12.378 26.8013 12.182C26.8013 12.0327 26.8433 11.8227 26.9273 11.552C27.0113 11.2813 27.1326 10.964 27.2913 10.6C27.4593 10.2267 27.6553 9.816 27.8793 9.368C28.1126 8.92 28.3739 8.43933 28.6633 7.926C28.4206 7.91667 28.2013 7.912 28.0053 7.912C27.8186 7.90267 27.6646 7.898 27.5433 7.898C27.5993 7.758 27.7579 7.63667 28.0193 7.534C28.2806 7.43133 28.6259 7.34267 29.0553 7.268C29.4193 6.66133 29.8066 6.08267 30.2173 5.532C30.6373 4.98133 31.0573 4.47733 31.4773 4.02C31.8973 3.55333 32.3173 3.14733 32.7373 2.802C33.1573 2.44733 33.5586 2.16733 33.9413 1.962C33.9506 1.89667 33.9553 1.84067 33.9553 1.794C33.9646 1.74733 33.9693 1.71467 33.9693 1.696C34.0999 1.696 34.2726 1.72867 34.4873 1.794C34.7113 1.85933 34.9259 1.93867 35.1313 2.032C35.3459 2.12533 35.5326 2.22333 35.6913 2.326C35.8593 2.41933 35.9526 2.49867 35.9713 2.564C35.6633 3.10533 35.3599 3.91733 35.0613 5C34.7626 6.07333 34.5153 7.36133 34.3193 8.864C34.2726 9.23733 34.2306 9.662 34.1933 10.138C34.1653 10.614 34.1513 11.146 34.1513 11.734C34.1513 11.9393 34.1513 12.1493 34.1513 12.364C34.1513 12.5787 34.1606 12.8027 34.1793 13.036C34.1606 13.0453 34.1419 13.05 34.1233 13.05C34.1046 13.05 34.0673 13.05 34.0113 13.05C33.8806 13.05 33.7266 13.0267 33.5493 12.98C33.3813 12.9427 33.2133 12.8913 33.0453 12.826C32.8866 12.77 32.7466 12.7047 32.6253 12.63C32.5133 12.5553 32.4433 12.49 32.4153 12.434C32.4059 12.3127 32.4013 12.1913 32.4013 12.07C32.4013 11.958 32.4013 11.8367 32.4013 11.706C32.4013 11.1273 32.4199 10.5393 32.4573 9.942C32.5039 9.34467 32.5786 8.72867 32.6813 8.094C32.5506 8.08467 32.3779 8.07533 32.1633 8.066C31.9486 8.04733 31.7059 8.03333 31.4353 8.024C31.1739 8.01467 30.8893 8.00533 30.5813 7.996C30.2826 7.97733 29.9886 7.96333 29.6993 7.954C29.4753 8.374 29.2653 8.794 29.0693 9.214C28.8733 9.62467 28.7053 10.04 28.5653 10.46C28.4066 10.908 28.2759 11.356 28.1733 11.804C28.0799 12.252 28.0193 12.672 27.9913 13.064ZM33.3953 4.65C33.4326 4.51933 33.4746 4.342 33.5213 4.118C33.5773 3.88467 33.6286 3.642 33.6753 3.39C33.4419 3.474 33.1806 3.628 32.8913 3.852C32.6113 4.076 32.3173 4.356 32.0093 4.692C31.7106 5.01867 31.4026 5.392 31.0853 5.812C30.7773 6.22267 30.4786 6.66133 30.1893 7.128C30.9733 7.06267 31.8646 7.02067 32.8633 7.002C32.9379 6.61 33.0173 6.22267 33.1013 5.84C33.1946 5.448 33.2926 5.05133 33.3953 4.65ZM35.8111 9.536C35.8111 9.004 35.9185 8.49067 36.1331 7.996C36.3571 7.492 36.6465 7.04867 37.0011 6.666C37.3651 6.274 37.7758 5.96133 38.2331 5.728C38.6998 5.48533 39.1805 5.364 39.6751 5.364C40.1605 5.364 40.5338 5.48533 40.7951 5.728C41.0565 5.97067 41.1871 6.316 41.1871 6.764C41.1871 6.97867 41.1545 7.18867 41.0891 7.394C41.0331 7.59 40.9538 7.76733 40.8511 7.926C40.7578 8.08467 40.6458 8.21533 40.5151 8.318C40.3845 8.41133 40.2538 8.458 40.1231 8.458C40.0111 8.458 39.8945 8.42533 39.7731 8.36C39.6611 8.28533 39.5678 8.192 39.4931 8.08C40.1185 7.51067 40.4311 6.99267 40.4311 6.526C40.4311 6.25533 40.3238 6.12 40.1091 6.12C39.9225 6.12 39.6891 6.20867 39.4091 6.386C39.1291 6.56333 38.8585 6.79667 38.5971 7.086C38.1958 7.534 37.8878 8.03333 37.6731 8.584C37.4678 9.12533 37.3651 9.69467 37.3651 10.292C37.3651 11.048 37.5331 11.5007 37.8691 11.65C38.0091 11.6313 38.1725 11.5893 38.3591 11.524C38.5458 11.4587 38.7465 11.3747 38.9611 11.272C39.1758 11.16 39.3951 11.034 39.6191 10.894C39.8525 10.754 40.0765 10.6047 40.2911 10.446C40.3285 10.474 40.3611 10.516 40.3891 10.572C40.4171 10.628 40.4311 10.6793 40.4311 10.726C40.2725 10.922 40.0905 11.1133 39.8851 11.3C39.6798 11.4867 39.4651 11.6593 39.2411 11.818C39.0171 11.9673 38.7978 12.0933 38.5831 12.196C38.3778 12.308 38.1958 12.378 38.0371 12.406C37.7291 12.378 37.4398 12.28 37.1691 12.112C36.8985 11.9533 36.6605 11.7433 36.4551 11.482C36.2591 11.2207 36.1005 10.922 35.9791 10.586C35.8671 10.25 35.8111 9.9 35.8111 9.536ZM41.592 11.762C41.592 11.4353 41.6247 11.0527 41.69 10.614C41.7554 10.166 41.8487 9.69 41.97 9.186C42.1007 8.682 42.25 8.15467 42.418 7.604C42.5954 7.05333 42.7914 6.50267 43.006 5.952C43.1927 5.45733 43.4074 4.958 43.65 4.454C43.902 3.95 44.1727 3.45533 44.462 2.97C44.7514 2.48467 45.05 2.02267 45.358 1.584C45.6754 1.14533 45.9927 0.744 46.31 0.379999C46.4594 0.379999 46.618 0.398666 46.786 0.436C46.9634 0.473333 47.1314 0.524666 47.29 0.589999C47.458 0.646 47.6074 0.716 47.738 0.8C47.878 0.884 47.99 0.968 48.074 1.052C47.374 1.77067 46.744 2.49867 46.184 3.236C45.624 3.964 45.1807 4.65 44.854 5.294C44.6767 5.64867 44.5134 5.98 44.364 6.288C44.224 6.596 44.0934 6.904 43.972 7.212C43.8507 7.51067 43.7387 7.814 43.636 8.122C43.5427 8.42067 43.454 8.738 43.37 9.074C45.162 6.78733 46.492 5.644 47.36 5.644C47.6027 5.644 47.864 5.72333 48.144 5.882C48.424 6.04067 48.6714 6.25533 48.886 6.526C48.5967 6.84333 48.298 7.226 47.99 7.674C47.682 8.122 47.3974 8.57467 47.136 9.032C46.884 9.48 46.674 9.9 46.506 10.292C46.3474 10.6747 46.268 10.9593 46.268 11.146C46.268 11.2393 46.282 11.3047 46.31 11.342C46.338 11.37 46.3987 11.384 46.492 11.384C46.632 11.384 46.744 11.3653 46.828 11.328C46.912 11.2907 46.9634 11.272 46.982 11.272C47.0287 11.3467 47.0567 11.398 47.066 11.426C47.0754 11.454 47.08 11.4773 47.08 11.496C47.08 11.5333 47.024 11.5893 46.912 11.664C46.8 11.7293 46.6647 11.7993 46.506 11.874C46.3567 11.9393 46.2074 12 46.058 12.056C45.9087 12.112 45.7967 12.14 45.722 12.14C45.6287 12.14 45.5354 12.112 45.442 12.056C45.3487 12.0093 45.2647 11.944 45.19 11.86C45.1247 11.776 45.0687 11.6827 45.022 11.58C44.9847 11.4773 44.966 11.37 44.966 11.258C44.966 11.118 45.0034 10.9127 45.078 10.642C45.162 10.362 45.274 10.04 45.414 9.676C45.554 9.30267 45.722 8.89667 45.918 8.458C46.114 8.01933 46.324 7.57133 46.548 7.114C46.548 7.07667 46.5294 7.058 46.492 7.058C46.464 7.058 46.3894 7.09533 46.268 7.17C46.156 7.24467 46.0487 7.31933 45.946 7.394C45.61 7.646 45.2694 7.95867 44.924 8.332C44.588 8.696 44.2567 9.09733 43.93 9.536C43.6127 9.97467 43.3094 10.4413 43.02 10.936C42.74 11.4213 42.4974 11.9113 42.292 12.406C42.264 12.4713 42.222 12.532 42.166 12.588C42.11 12.644 42.0634 12.672 42.026 12.672C41.998 12.672 41.956 12.6393 41.9 12.574C41.8534 12.5087 41.8067 12.4247 41.76 12.322C41.7227 12.2287 41.6854 12.1307 41.648 12.028C41.6107 11.9253 41.592 11.8367 41.592 11.762ZM50.4905 12.49C49.9585 12.434 49.5338 12.2007 49.2165 11.79C48.8991 11.3793 48.7405 10.8567 48.7405 10.222C48.7405 9.84867 48.7965 9.46133 48.9085 9.06C49.0205 8.65867 49.1791 8.27133 49.3845 7.898C49.5898 7.51533 49.8325 7.156 50.1125 6.82C50.3925 6.484 50.6958 6.19467 51.0225 5.952C51.5358 5.56933 52.0165 5.378 52.4645 5.378C52.7631 5.53667 53.0571 5.868 53.3465 6.372C53.3931 6.372 53.4351 6.372 53.4725 6.372C53.5098 6.36267 53.5518 6.358 53.5985 6.358C54.0931 6.358 54.3405 6.79667 54.3405 7.674C54.3405 8.262 54.2425 8.822 54.0465 9.354C53.8598 9.87667 53.5938 10.3527 53.2485 10.782C52.9125 11.2113 52.5065 11.5753 52.0305 11.874C51.5638 12.1633 51.0505 12.3687 50.4905 12.49ZM51.2045 8.08C51.0458 8.29467 50.8965 8.528 50.7565 8.78C50.6165 9.032 50.4951 9.28867 50.3925 9.55C50.2898 9.802 50.2105 10.0493 50.1545 10.292C50.0985 10.5253 50.0705 10.7353 50.0705 10.922C50.0705 11.146 50.1078 11.3607 50.1825 11.566C50.2571 11.7713 50.3411 11.888 50.4345 11.916C50.8545 11.8227 51.2371 11.65 51.5825 11.398C51.9371 11.1367 52.2405 10.8147 52.4925 10.432C52.7538 10.0493 52.9545 9.61533 53.0945 9.13C53.2438 8.64467 53.3185 8.12667 53.3185 7.576C53.3185 7.33333 53.3045 7.142 53.2765 7.002C53.2485 6.862 53.2018 6.74067 53.1365 6.638C52.7258 6.75933 52.3571 6.95533 52.0305 7.226C51.7131 7.49667 51.4378 7.78133 51.2045 8.08ZM58.8262 11.692C58.6488 11.5427 58.5275 11.356 58.4622 11.132C58.4062 10.908 58.3782 10.7167 58.3782 10.558C58.3782 10.362 58.4015 10.194 58.4482 10.054C58.4108 10.054 58.3268 10.1287 58.1962 10.278C58.0655 10.4273 57.9208 10.6047 57.7622 10.81C57.6128 11.0153 57.4635 11.216 57.3142 11.412C57.1648 11.608 57.0528 11.7527 56.9782 11.846C56.8568 11.9767 56.7402 12.0793 56.6282 12.154C56.5255 12.2287 56.4415 12.2707 56.3762 12.28C56.2268 12.2707 56.0682 12.238 55.9002 12.182C55.7415 12.1353 55.5875 12.0653 55.4382 11.972C55.2982 11.8787 55.1722 11.7667 55.0602 11.636C54.9575 11.5053 54.8875 11.356 54.8502 11.188C54.8502 10.9267 54.8548 10.712 54.8642 10.544C54.8828 10.376 54.9155 10.194 54.9622 9.998C55.0462 9.64333 55.1675 9.242 55.3262 8.794C55.4942 8.346 55.6855 7.90733 55.9002 7.478C56.1148 7.03933 56.3528 6.63333 56.6142 6.26C56.8848 5.87733 57.1695 5.57867 57.4682 5.364C57.5522 5.364 57.6502 5.37333 57.7622 5.392C57.8742 5.40133 57.9862 5.42467 58.0982 5.462C58.2195 5.49933 58.3315 5.546 58.4342 5.602C58.5462 5.64867 58.6395 5.714 58.7142 5.798C58.6302 5.89133 58.4155 6.204 58.0702 6.736C57.7342 7.268 57.3562 8.03333 56.9362 9.032C56.8895 9.13467 56.8335 9.284 56.7682 9.48C56.7028 9.676 56.6375 9.88133 56.5722 10.096C56.5068 10.3107 56.4508 10.5207 56.4042 10.726C56.3668 10.9313 56.3482 11.0947 56.3482 11.216C56.3482 11.2907 56.3575 11.3467 56.3762 11.384C56.4042 11.4213 56.4275 11.4493 56.4462 11.468C56.5862 11.412 56.7635 11.258 56.9782 11.006C57.1928 10.754 57.4915 10.3667 57.8742 9.844C57.9675 9.71333 58.0748 9.564 58.1962 9.396C58.3268 9.228 58.4575 9.05067 58.5882 8.864C58.7188 8.668 58.8402 8.46733 58.9522 8.262C59.0735 8.05667 59.1715 7.85133 59.2462 7.646C59.2835 7.534 59.3302 7.40333 59.3862 7.254C59.4515 7.09533 59.5262 6.932 59.6102 6.764C59.7035 6.596 59.8062 6.428 59.9182 6.26C60.0395 6.08267 60.1795 5.91933 60.3382 5.77C60.4595 5.77 60.5902 5.784 60.7302 5.812C60.8702 5.84 61.0008 5.87733 61.1222 5.924C61.2528 5.96133 61.3648 6.008 61.4582 6.064C61.5515 6.11067 61.6215 6.162 61.6682 6.218C61.5002 6.62867 61.3135 7.03467 61.1082 7.436C60.9028 7.83733 60.7115 8.234 60.5342 8.626C60.3568 9.00867 60.2075 9.39133 60.0862 9.774C59.9648 10.1567 59.9042 10.53 59.9042 10.894C59.9042 11.09 59.9182 11.2627 59.9462 11.412C59.9835 11.552 60.0208 11.6733 60.0582 11.776C60.0955 11.8693 60.1282 11.9487 60.1562 12.014C60.1935 12.0793 60.2122 12.1353 60.2122 12.182C60.2122 12.1913 60.2028 12.2053 60.1842 12.224C60.1748 12.2333 60.1655 12.238 60.1562 12.238C60.0908 12.238 60.0068 12.224 59.9042 12.196C59.8015 12.168 59.6848 12.126 59.5542 12.07C59.4328 12.0233 59.3068 11.9673 59.1762 11.902C59.0548 11.8367 58.9382 11.7667 58.8262 11.692Z" fill="#EC221F"/>
</svg>
