<svg width="132" height="28" viewBox="0 0 132 28" fill="none" xmlns="http://www.w3.org/2000/svg">
<path d="M20.46 8.83C20.46 9.93 20.18 10.98 19.62 11.98C19.08 12.98 18.34 13.86 17.4 14.62C16.48 15.36 15.39 15.95 14.13 16.39C12.89 16.83 11.57 17.05 10.17 17.05C9.67 17.05 9.27 16.99 8.97 16.87C8.69 16.73 8.37 16.47 8.01 16.09C7.01 18.27 6.19 20.28 5.55 22.12C4.93 23.94 4.44 25.71 4.08 27.43C3.32 27.25 2.7 26.93 2.22 26.47C1.74 26.03 1.3 25.47 0.9 24.79C1.1 24.41 1.34 23.91 1.62 23.29C1.9 22.67 2.24 21.91 2.64 21.01C3.04 20.09 3.5 19 4.02 17.74C4.56 16.46 5.19 14.97 5.91 13.27C6.23 12.49 6.51 11.81 6.75 11.23C6.99 10.65 7.2 10.11 7.38 9.61C7.56 9.09 7.72 8.58 7.86 8.08C8.02 7.58 8.18 7.03 8.34 6.43C7.4 6.73 6.53 7.08 5.73 7.48C4.95 7.88 4.3 8.3 3.78 8.74C3.6 8.62 3.41 8.44 3.21 8.2C3.03 7.96 2.86 7.7 2.7 7.42C2.54 7.12 2.4 6.82 2.28 6.52C2.16 6.22 2.09 5.95 2.07 5.71C2.65 5.31 3.37 4.94 4.23 4.6C5.09 4.26 6.01 3.97 6.99 3.73C7.97 3.47 8.98 3.27 10.02 3.13C11.08 2.99 12.09 2.92 13.05 2.92C14.19 2.92 15.22 3.07 16.14 3.37C17.06 3.65 17.84 4.05 18.48 4.57C19.12 5.09 19.61 5.71 19.95 6.43C20.29 7.15 20.46 7.95 20.46 8.83ZM15.12 5.23C14.36 5.23 13.58 5.29 12.78 5.41L13.14 5.95C12.94 6.21 12.69 6.6 12.39 7.12C12.09 7.64 11.76 8.27 11.4 9.01C11.04 9.73 10.64 10.54 10.2 11.44C9.78 12.34 9.33 13.29 8.85 14.29C10.41 14.29 11.83 14.15 13.11 13.87C14.39 13.57 15.48 13.17 16.38 12.67C17.3 12.15 18.01 11.55 18.51 10.87C19.03 10.19 19.29 9.46 19.29 8.68C19.29 7.64 18.94 6.81 18.24 6.19C17.54 5.55 16.5 5.23 15.12 5.23ZM20.628 27.28C19.668 27 18.998 26.72 18.618 26.44C18.258 26.16 18.078 25.81 18.078 25.39C18.078 25.07 18.168 24.62 18.348 24.04C18.528 23.46 18.788 22.78 19.128 22C19.488 21.2 19.908 20.32 20.388 19.36C20.888 18.4 21.448 17.37 22.068 16.27C21.548 16.25 21.078 16.24 20.658 16.24C20.258 16.22 19.928 16.21 19.668 16.21C19.788 15.91 20.128 15.65 20.688 15.43C21.248 15.21 21.988 15.02 22.908 14.86C23.688 13.56 24.518 12.32 25.398 11.14C26.298 9.96 27.198 8.88 28.098 7.9C28.998 6.9 29.898 6.03 30.798 5.29C31.698 4.53 32.558 3.93 33.378 3.49C33.398 3.35 33.408 3.23 33.408 3.13C33.428 3.03 33.438 2.96 33.438 2.92C33.718 2.92 34.088 2.99 34.548 3.13C35.028 3.27 35.488 3.44 35.928 3.64C36.388 3.84 36.788 4.05 37.128 4.27C37.488 4.47 37.688 4.64 37.728 4.78C37.068 5.94 36.418 7.68 35.778 10C35.138 12.3 34.608 15.06 34.188 18.28C34.088 19.08 33.998 19.99 33.918 21.01C33.858 22.03 33.828 23.17 33.828 24.43C33.828 24.87 33.828 25.32 33.828 25.78C33.828 26.24 33.848 26.72 33.888 27.22C33.848 27.24 33.808 27.25 33.768 27.25C33.728 27.25 33.648 27.25 33.528 27.25C33.248 27.25 32.918 27.2 32.538 27.1C32.178 27.02 31.818 26.91 31.458 26.77C31.118 26.65 30.818 26.51 30.558 26.35C30.318 26.19 30.168 26.05 30.108 25.93C30.088 25.67 30.078 25.41 30.078 25.15C30.078 24.91 30.078 24.65 30.078 24.37C30.078 23.13 30.118 21.87 30.198 20.59C30.298 19.31 30.458 17.99 30.678 16.63C30.398 16.61 30.028 16.59 29.568 16.57C29.108 16.53 28.588 16.5 28.008 16.48C27.448 16.46 26.838 16.44 26.178 16.42C25.538 16.38 24.908 16.35 24.288 16.33C23.808 17.23 23.358 18.13 22.938 19.03C22.518 19.91 22.158 20.8 21.858 21.7C21.518 22.66 21.238 23.62 21.018 24.58C20.818 25.54 20.688 26.44 20.628 27.28ZM32.208 9.25C32.288 8.97 32.378 8.59 32.478 8.11C32.598 7.61 32.708 7.09 32.808 6.55C32.308 6.73 31.748 7.06 31.128 7.54C30.528 8.02 29.898 8.62 29.238 9.34C28.598 10.04 27.938 10.84 27.258 11.74C26.598 12.62 25.958 13.56 25.338 14.56C27.018 14.42 28.928 14.33 31.068 14.29C31.228 13.45 31.398 12.62 31.578 11.8C31.778 10.96 31.988 10.11 32.208 9.25ZM58.9561 8.83C58.9561 9.93 58.6761 10.98 58.1161 11.98C57.5761 12.98 56.8361 13.86 55.8961 14.62C54.9761 15.36 53.8861 15.95 52.6261 16.39C51.3861 16.83 50.0661 17.05 48.6661 17.05C48.1661 17.05 47.7661 16.99 47.4661 16.87C47.1861 16.73 46.8661 16.47 46.5061 16.09C45.5061 18.27 44.6861 20.28 44.0461 22.12C43.4261 23.94 42.9361 25.71 42.5761 27.43C41.8161 27.25 41.1961 26.93 40.7161 26.47C40.2361 26.03 39.7961 25.47 39.3961 24.79C39.5961 24.41 39.8361 23.91 40.1161 23.29C40.3961 22.67 40.7361 21.91 41.1361 21.01C41.5361 20.09 41.9961 19 42.5161 17.74C43.0561 16.46 43.6861 14.97 44.4061 13.27C44.7261 12.49 45.0061 11.81 45.2461 11.23C45.4861 10.65 45.6961 10.11 45.8761 9.61C46.0561 9.09 46.2161 8.58 46.3561 8.08C46.5161 7.58 46.6761 7.03 46.8361 6.43C45.8961 6.73 45.0261 7.08 44.2261 7.48C43.4461 7.88 42.7961 8.3 42.2761 8.74C42.0961 8.62 41.9061 8.44 41.7061 8.2C41.5261 7.96 41.3561 7.7 41.1961 7.42C41.0361 7.12 40.8961 6.82 40.7761 6.52C40.6561 6.22 40.5861 5.95 40.5661 5.71C41.1461 5.31 41.8661 4.94 42.7261 4.6C43.5861 4.26 44.5061 3.97 45.4861 3.73C46.4661 3.47 47.4761 3.27 48.5161 3.13C49.5761 2.99 50.5861 2.92 51.5461 2.92C52.6861 2.92 53.7161 3.07 54.6361 3.37C55.5561 3.65 56.3361 4.05 56.9761 4.57C57.6161 5.09 58.1061 5.71 58.4461 6.43C58.7861 7.15 58.9561 7.95 58.9561 8.83ZM53.6161 5.23C52.8561 5.23 52.0761 5.29 51.2761 5.41L51.6361 5.95C51.4361 6.21 51.1861 6.6 50.8861 7.12C50.5861 7.64 50.2561 8.27 49.8961 9.01C49.5361 9.73 49.1361 10.54 48.6961 11.44C48.2761 12.34 47.8261 13.29 47.3461 14.29C48.9061 14.29 50.3261 14.15 51.6061 13.87C52.8861 13.57 53.9761 13.17 54.8761 12.67C55.7961 12.15 56.5061 11.55 57.0061 10.87C57.5261 10.19 57.7861 9.46 57.7861 8.68C57.7861 7.64 57.4361 6.81 56.7361 6.19C56.0361 5.55 54.9961 5.23 53.6161 5.23ZM59.1241 27.28C58.1641 27 57.4941 26.72 57.1141 26.44C56.7541 26.16 56.5741 25.81 56.5741 25.39C56.5741 25.07 56.6641 24.62 56.8441 24.04C57.0241 23.46 57.2841 22.78 57.6241 22C57.9841 21.2 58.4041 20.32 58.8841 19.36C59.3841 18.4 59.9441 17.37 60.5641 16.27C60.0441 16.25 59.5741 16.24 59.1541 16.24C58.7541 16.22 58.4241 16.21 58.1641 16.21C58.2841 15.91 58.6241 15.65 59.1841 15.43C59.7441 15.21 60.4841 15.02 61.4041 14.86C62.1841 13.56 63.0141 12.32 63.8941 11.14C64.7941 9.96 65.6941 8.88 66.5941 7.9C67.4941 6.9 68.3941 6.03 69.2941 5.29C70.1941 4.53 71.0541 3.93 71.8741 3.49C71.8941 3.35 71.9041 3.23 71.9041 3.13C71.9241 3.03 71.9341 2.96 71.9341 2.92C72.2141 2.92 72.5841 2.99 73.0441 3.13C73.5241 3.27 73.9841 3.44 74.4241 3.64C74.8841 3.84 75.2841 4.05 75.6241 4.27C75.9841 4.47 76.1841 4.64 76.2241 4.78C75.5641 5.94 74.9141 7.68 74.2741 10C73.6341 12.3 73.1041 15.06 72.6841 18.28C72.5841 19.08 72.4941 19.99 72.4141 21.01C72.3541 22.03 72.3241 23.17 72.3241 24.43C72.3241 24.87 72.3241 25.32 72.3241 25.78C72.3241 26.24 72.3441 26.72 72.3841 27.22C72.3441 27.24 72.3041 27.25 72.2641 27.25C72.2241 27.25 72.1441 27.25 72.0241 27.25C71.7441 27.25 71.4141 27.2 71.0341 27.1C70.6741 27.02 70.3141 26.91 69.9541 26.77C69.6141 26.65 69.3141 26.51 69.0541 26.35C68.8141 26.19 68.6641 26.05 68.6041 25.93C68.5841 25.67 68.5741 25.41 68.5741 25.15C68.5741 24.91 68.5741 24.65 68.5741 24.37C68.5741 23.13 68.6141 21.87 68.6941 20.59C68.7941 19.31 68.9541 17.99 69.1741 16.63C68.8941 16.61 68.5241 16.59 68.0641 16.57C67.6041 16.53 67.0841 16.5 66.5041 16.48C65.9441 16.46 65.3341 16.44 64.6741 16.42C64.0341 16.38 63.4041 16.35 62.7841 16.33C62.3041 17.23 61.8541 18.13 61.4341 19.03C61.0141 19.91 60.6541 20.8 60.3541 21.7C60.0141 22.66 59.7341 23.62 59.5141 24.58C59.3141 25.54 59.1841 26.44 59.1241 27.28ZM70.7041 9.25C70.7841 8.97 70.8741 8.59 70.9741 8.11C71.0941 7.61 71.2041 7.09 71.3041 6.55C70.8041 6.73 70.2441 7.06 69.6241 7.54C69.0241 8.02 68.3941 8.62 67.7341 9.34C67.0941 10.04 66.4341 10.84 65.7541 11.74C65.0941 12.62 64.4541 13.56 63.8341 14.56C65.5141 14.42 67.4241 14.33 69.5641 14.29C69.7241 13.45 69.8941 12.62 70.0741 11.8C70.2741 10.96 70.4841 10.11 70.7041 9.25ZM75.881 19.72C75.881 18.58 76.111 17.48 76.571 16.42C77.051 15.34 77.671 14.39 78.431 13.57C79.211 12.73 80.091 12.06 81.071 11.56C82.071 11.04 83.101 10.78 84.161 10.78C85.201 10.78 86.001 11.04 86.561 11.56C87.121 12.08 87.401 12.82 87.401 13.78C87.401 14.24 87.331 14.69 87.191 15.13C87.071 15.55 86.901 15.93 86.681 16.27C86.481 16.61 86.241 16.89 85.961 17.11C85.681 17.31 85.401 17.41 85.121 17.41C84.881 17.41 84.631 17.34 84.371 17.2C84.131 17.04 83.931 16.84 83.771 16.6C85.111 15.38 85.781 14.27 85.781 13.27C85.781 12.69 85.551 12.4 85.091 12.4C84.691 12.4 84.191 12.59 83.591 12.97C82.991 13.35 82.411 13.85 81.851 14.47C80.991 15.43 80.331 16.5 79.871 17.68C79.431 18.84 79.211 20.06 79.211 21.34C79.211 22.96 79.571 23.93 80.291 24.25C80.591 24.21 80.941 24.12 81.341 23.98C81.741 23.84 82.171 23.66 82.631 23.44C83.091 23.2 83.561 22.93 84.041 22.63C84.541 22.33 85.021 22.01 85.481 21.67C85.561 21.73 85.631 21.82 85.691 21.94C85.751 22.06 85.781 22.17 85.781 22.27C85.441 22.69 85.051 23.1 84.611 23.5C84.171 23.9 83.711 24.27 83.231 24.61C82.751 24.93 82.281 25.2 81.821 25.42C81.381 25.66 80.991 25.81 80.651 25.87C79.991 25.81 79.371 25.6 78.791 25.24C78.211 24.9 77.701 24.45 77.261 23.89C76.841 23.33 76.501 22.69 76.241 21.97C76.001 21.25 75.881 20.5 75.881 19.72ZM88.2687 24.49C88.2687 23.79 88.3387 22.97 88.4787 22.03C88.6187 21.07 88.8187 20.05 89.0787 18.97C89.3587 17.89 89.6787 16.76 90.0387 15.58C90.4187 14.4 90.8387 13.22 91.2987 12.04C91.6987 10.98 92.1587 9.91 92.6787 8.83C93.2187 7.75 93.7987 6.69 94.4187 5.65C95.0387 4.61 95.6787 3.62 96.3387 2.68C97.0187 1.74 97.6987 0.879999 98.3787 0.0999987C98.6987 0.0999987 99.0387 0.139999 99.3987 0.219999C99.7787 0.299999 100.139 0.409999 100.479 0.549998C100.839 0.669999 101.159 0.82 101.439 1C101.739 1.18 101.979 1.36 102.159 1.54C100.659 3.08 99.3087 4.64 98.1087 6.22C96.9087 7.78 95.9587 9.25 95.2587 10.63C94.8787 11.39 94.5287 12.1 94.2087 12.76C93.9087 13.42 93.6287 14.08 93.3687 14.74C93.1087 15.38 92.8687 16.03 92.6487 16.69C92.4487 17.33 92.2587 18.01 92.0787 18.73C95.9187 13.83 98.7687 11.38 100.629 11.38C101.149 11.38 101.709 11.55 102.309 11.89C102.909 12.23 103.439 12.69 103.899 13.27C103.279 13.95 102.639 14.77 101.979 15.73C101.319 16.69 100.709 17.66 100.149 18.64C99.6087 19.6 99.1587 20.5 98.7987 21.34C98.4587 22.16 98.2887 22.77 98.2887 23.17C98.2887 23.37 98.3187 23.51 98.3787 23.59C98.4387 23.65 98.5687 23.68 98.7687 23.68C99.0687 23.68 99.3087 23.64 99.4887 23.56C99.6687 23.48 99.7787 23.44 99.8187 23.44C99.9187 23.6 99.9787 23.71 99.9987 23.77C100.019 23.83 100.029 23.88 100.029 23.92C100.029 24 99.9087 24.12 99.6687 24.28C99.4287 24.42 99.1387 24.57 98.7987 24.73C98.4787 24.87 98.1587 25 97.8387 25.12C97.5187 25.24 97.2787 25.3 97.1187 25.3C96.9187 25.3 96.7187 25.24 96.5187 25.12C96.3187 25.02 96.1387 24.88 95.9787 24.7C95.8387 24.52 95.7187 24.32 95.6187 24.1C95.5387 23.88 95.4987 23.65 95.4987 23.41C95.4987 23.11 95.5787 22.67 95.7387 22.09C95.9187 21.49 96.1587 20.8 96.4587 20.02C96.7587 19.22 97.1187 18.35 97.5387 17.41C97.9587 16.47 98.4087 15.51 98.8887 14.53C98.8887 14.45 98.8487 14.41 98.7687 14.41C98.7087 14.41 98.5487 14.49 98.2887 14.65C98.0487 14.81 97.8187 14.97 97.5987 15.13C96.8787 15.67 96.1487 16.34 95.4087 17.14C94.6887 17.92 93.9787 18.78 93.2787 19.72C92.5987 20.66 91.9487 21.66 91.3287 22.72C90.7287 23.76 90.2087 24.81 89.7687 25.87C89.7087 26.01 89.6187 26.14 89.4987 26.26C89.3787 26.38 89.2787 26.44 89.1987 26.44C89.1387 26.44 89.0487 26.37 88.9287 26.23C88.8287 26.09 88.7287 25.91 88.6287 25.69C88.5487 25.49 88.4687 25.28 88.3887 25.06C88.3087 24.84 88.2687 24.65 88.2687 24.49ZM107.337 26.05C106.197 25.93 105.287 25.43 104.607 24.55C103.927 23.67 103.587 22.55 103.587 21.19C103.587 20.39 103.707 19.56 103.947 18.7C104.187 17.84 104.527 17.01 104.967 16.21C105.407 15.39 105.927 14.62 106.527 13.9C107.127 13.18 107.777 12.56 108.477 12.04C109.577 11.22 110.607 10.81 111.567 10.81C112.207 11.15 112.837 11.86 113.457 12.94C113.557 12.94 113.647 12.94 113.727 12.94C113.807 12.92 113.897 12.91 113.997 12.91C115.057 12.91 115.587 13.85 115.587 15.73C115.587 16.99 115.377 18.19 114.957 19.33C114.557 20.45 113.987 21.47 113.247 22.39C112.527 23.31 111.657 24.09 110.637 24.73C109.637 25.35 108.537 25.79 107.337 26.05ZM108.867 16.6C108.527 17.06 108.207 17.56 107.907 18.1C107.607 18.64 107.347 19.19 107.127 19.75C106.907 20.29 106.737 20.82 106.617 21.34C106.497 21.84 106.437 22.29 106.437 22.69C106.437 23.17 106.517 23.63 106.677 24.07C106.837 24.51 107.017 24.76 107.217 24.82C108.117 24.62 108.937 24.25 109.677 23.71C110.437 23.15 111.087 22.46 111.627 21.64C112.187 20.82 112.617 19.89 112.917 18.85C113.237 17.81 113.397 16.7 113.397 15.52C113.397 15 113.367 14.59 113.307 14.29C113.247 13.99 113.147 13.73 113.007 13.51C112.127 13.77 111.337 14.19 110.637 14.77C109.957 15.35 109.367 15.96 108.867 16.6ZM125.199 24.34C124.819 24.02 124.559 23.62 124.419 23.14C124.299 22.66 124.239 22.25 124.239 21.91C124.239 21.49 124.289 21.13 124.389 20.83C124.309 20.83 124.129 20.99 123.849 21.31C123.569 21.63 123.259 22.01 122.919 22.45C122.599 22.89 122.279 23.32 121.959 23.74C121.639 24.16 121.399 24.47 121.239 24.67C120.979 24.95 120.729 25.17 120.489 25.33C120.269 25.49 120.089 25.58 119.949 25.6C119.629 25.58 119.289 25.51 118.929 25.39C118.589 25.29 118.259 25.14 117.939 24.94C117.639 24.74 117.369 24.5 117.129 24.22C116.909 23.94 116.759 23.62 116.679 23.26C116.679 22.7 116.689 22.24 116.709 21.88C116.749 21.52 116.819 21.13 116.919 20.71C117.099 19.95 117.359 19.09 117.699 18.13C118.059 17.17 118.469 16.23 118.929 15.31C119.389 14.37 119.899 13.5 120.459 12.7C121.039 11.88 121.649 11.24 122.289 10.78C122.469 10.78 122.679 10.8 122.919 10.84C123.159 10.86 123.399 10.91 123.639 10.99C123.899 11.07 124.139 11.17 124.359 11.29C124.599 11.39 124.799 11.53 124.959 11.71C124.779 11.91 124.319 12.58 123.579 13.72C122.859 14.86 122.049 16.5 121.149 18.64C121.049 18.86 120.929 19.18 120.789 19.6C120.649 20.02 120.509 20.46 120.369 20.92C120.229 21.38 120.109 21.83 120.009 22.27C119.929 22.71 119.889 23.06 119.889 23.32C119.889 23.48 119.909 23.6 119.949 23.68C120.009 23.76 120.059 23.82 120.099 23.86C120.399 23.74 120.779 23.41 121.239 22.87C121.699 22.33 122.339 21.5 123.159 20.38C123.359 20.1 123.589 19.78 123.849 19.42C124.129 19.06 124.409 18.68 124.689 18.28C124.969 17.86 125.229 17.43 125.469 16.99C125.729 16.55 125.939 16.11 126.099 15.67C126.179 15.43 126.279 15.15 126.399 14.83C126.539 14.49 126.699 14.14 126.879 13.78C127.079 13.42 127.299 13.06 127.539 12.7C127.799 12.32 128.099 11.97 128.439 11.65C128.699 11.65 128.979 11.68 129.279 11.74C129.579 11.8 129.859 11.88 130.119 11.98C130.399 12.06 130.639 12.16 130.839 12.28C131.039 12.38 131.189 12.49 131.289 12.61C130.929 13.49 130.529 14.36 130.089 15.22C129.649 16.08 129.239 16.93 128.859 17.77C128.479 18.59 128.159 19.41 127.899 20.23C127.639 21.05 127.509 21.85 127.509 22.63C127.509 23.05 127.539 23.42 127.599 23.74C127.679 24.04 127.759 24.3 127.839 24.52C127.919 24.72 127.989 24.89 128.049 25.03C128.129 25.17 128.169 25.29 128.169 25.39C128.169 25.41 128.149 25.44 128.109 25.48C128.089 25.5 128.069 25.51 128.049 25.51C127.909 25.51 127.729 25.48 127.509 25.42C127.289 25.36 127.039 25.27 126.759 25.15C126.499 25.05 126.229 24.93 125.949 24.79C125.689 24.65 125.439 24.5 125.199 24.34Z" fill="#EC221F"/>
</svg>
