<svg width="150" height="50" viewBox="0 0 150 50" fill="none" xmlns="http://www.w3.org/2000/svg">
<path d="M20 0.5H149.5V30C149.5 40.7696 140.77 49.5 130 49.5H0.5V20L0.506836 19.4971C0.773602 8.95996 9.3986 0.500001 20 0.5Z" fill="#FF5F57" fill-opacity="0.17" stroke="url(#paint0_linear_896_195)"/>
<g clip-path="url(#clip0_896_195)">
<path d="M56.4243 33.2237V31.3962C56.4243 30.4268 56.02 29.4972 55.3004 28.8117C54.5808 28.1263 53.6048 27.7412 52.5871 27.7412H44.9126C43.895 27.7412 42.9189 28.1263 42.1993 28.8117C41.4797 29.4972 41.0754 30.4268 41.0754 31.3962V33.2237M62.1801 33.2237V31.3962C62.1795 30.5864 61.8965 29.7997 61.3756 29.1596C60.8547 28.5196 60.1254 28.0625 59.3022 27.86M55.465 16.8951C56.2904 17.0964 57.022 17.5536 57.5444 18.1947C58.0668 18.8358 58.3504 19.6243 58.3504 20.4358C58.3504 21.2474 58.0668 22.0359 57.5444 22.677C57.022 23.3181 56.2904 23.7753 55.465 23.9766M52.5871 20.4313C52.5871 22.4499 50.8691 24.0862 48.7499 24.0862C46.6306 24.0862 44.9126 22.4499 44.9126 20.4313C44.9126 18.4127 46.6306 16.7763 48.7499 16.7763C50.8691 16.7763 52.5871 18.4127 52.5871 20.4313Z" stroke="#EC221F" stroke-linecap="round" stroke-linejoin="round"/>
</g>
<path d="M62.6599 22.7157H59.782V21.802H62.6599V19.0607H63.6192V21.802H66.4971V22.7157H63.6192V25.4569H62.6599V22.7157Z" fill="#FF5F57"/>
<path d="M81.9744 33.6965C81.3754 33.6965 80.8546 32.9282 80.4119 31.3918C80.2426 30.8058 80.031 29.7805 79.7771 28.3156C79.113 28.4068 78.2439 28.5695 77.1697 28.8039L74.572 29.341C74.2465 30.1939 73.6899 31.4406 72.9021 33.0812C72.6938 33.4458 72.4106 33.6281 72.0525 33.6281C71.7921 33.6281 71.5577 33.5337 71.3494 33.3449C71.1475 33.1561 71.0466 32.9217 71.0466 32.6418C71.0466 32.3293 71.5382 31.1411 72.5212 29.0773C72.4106 28.9081 72.3552 28.7127 72.3552 28.4914C72.3552 27.9641 72.6742 27.6255 73.3123 27.4758C74.0544 26.0825 74.9919 24.481 76.1248 22.6711C77.6677 20.2036 78.628 18.9699 79.0056 18.9699C79.5199 18.9699 79.8715 19.328 80.0603 20.0441L80.6755 23.3254L82.1306 30.1125L82.6873 31.6555C82.8761 32.1828 82.9705 32.5344 82.9705 32.7101C82.9705 32.9901 82.8695 33.2245 82.6677 33.4133C82.4659 33.6021 82.2348 33.6965 81.9744 33.6965ZM78.5271 22.5344L75.7341 27.0363C76.5219 26.8345 77.7166 26.5904 79.3181 26.3039L78.5271 22.5344ZM94.7478 24.7805C94.6697 25.7375 94.6306 26.6945 94.6306 27.6516C94.6306 29.8195 94.7315 31.4569 94.9333 32.5637C94.9464 32.6548 94.9529 32.7297 94.9529 32.7883C94.9529 33.0487 94.8617 33.2635 94.6794 33.4328C94.4972 33.6021 94.2856 33.6867 94.0447 33.6867C93.641 33.6867 93.3448 33.3937 93.156 32.8078C92.6873 33.1529 92.199 33.4133 91.6912 33.5891C91.1899 33.7648 90.6658 33.8527 90.1189 33.8527C88.7712 33.8527 87.6547 33.4035 86.7693 32.5051C85.8578 31.5871 85.4021 30.4087 85.4021 28.9699C85.4021 27.2316 85.8611 25.8384 86.7791 24.7902C87.7035 23.742 88.9014 23.218 90.3728 23.218C91.128 23.218 91.7107 23.3351 92.1208 23.5695L93.0388 24.2433C93.13 21.5025 93.2374 19.6568 93.3611 18.7062C93.4457 18.1268 93.7419 17.8371 94.2498 17.8371C94.8422 17.8371 95.1384 18.1529 95.1384 18.7844C95.1384 19.6893 95.0082 21.688 94.7478 24.7805ZM90.4119 25.0344C89.3181 25.0344 88.4978 25.3599 87.9509 26.0109C87.4041 26.6555 87.1306 27.6288 87.1306 28.9308C87.1306 29.7707 87.4268 30.4933 88.0193 31.0988C88.6182 31.7043 89.3181 32.007 90.1189 32.007C90.6658 32.007 91.128 31.9061 91.5056 31.7043C91.727 31.5871 92.0883 31.3169 92.5896 30.8937C92.6873 30.8091 92.7817 30.7082 92.8728 30.591L92.8435 28.9016L92.8533 27.7687L92.8728 26.6164C92.6254 26.0891 92.2966 25.6952 91.8865 25.4348C91.4763 25.1678 90.9848 25.0344 90.4119 25.0344ZM106.506 24.7805C106.427 25.7375 106.388 26.6945 106.388 27.6516C106.388 29.8195 106.489 31.4569 106.691 32.5637C106.704 32.6548 106.711 32.7297 106.711 32.7883C106.711 33.0487 106.62 33.2635 106.437 33.4328C106.255 33.6021 106.043 33.6867 105.802 33.6867C105.399 33.6867 105.103 33.3937 104.914 32.8078C104.445 33.1529 103.957 33.4133 103.449 33.5891C102.948 33.7648 102.424 33.8527 101.877 33.8527C100.529 33.8527 99.4125 33.4035 98.5271 32.5051C97.6156 31.5871 97.1599 30.4087 97.1599 28.9699C97.1599 27.2316 97.6189 25.8384 98.5369 24.7902C99.4613 23.742 100.659 23.218 102.131 23.218C102.886 23.218 103.469 23.3351 103.879 23.5695L104.797 24.2433C104.888 21.5025 104.995 19.6568 105.119 18.7062C105.204 18.1268 105.5 17.8371 106.008 17.8371C106.6 17.8371 106.896 18.1529 106.896 18.7844C106.896 19.6893 106.766 21.688 106.506 24.7805ZM102.17 25.0344C101.076 25.0344 100.256 25.3599 99.7087 26.0109C99.1619 26.6555 98.8884 27.6288 98.8884 28.9308C98.8884 29.7707 99.1847 30.4933 99.7771 31.0988C100.376 31.7043 101.076 32.007 101.877 32.007C102.424 32.007 102.886 31.9061 103.263 31.7043C103.485 31.5871 103.846 31.3169 104.347 30.8937C104.445 30.8091 104.539 30.7082 104.631 30.591L104.601 28.9016L104.611 27.7687L104.631 26.6164C104.383 26.0891 104.054 25.6952 103.644 25.4348C103.234 25.1678 102.743 25.0344 102.17 25.0344Z" fill="url(#paint1_linear_896_195)"/>
<defs>
<linearGradient id="paint0_linear_896_195" x1="0" y1="25" x2="150" y2="25" gradientUnits="userSpaceOnUse">
<stop stop-color="#FFA91F"/>
<stop offset="1" stop-color="#FF6464"/>
</linearGradient>
<linearGradient id="paint1_linear_896_195" x1="101.027" y1="17.4464" x2="71.3367" y2="24.2724" gradientUnits="userSpaceOnUse">
<stop stop-color="#EC221F"/>
<stop offset="1" stop-color="#FFB744"/>
</linearGradient>
<clipPath id="clip0_896_195">
<rect width="23.0233" height="21.9298" fill="white" transform="translate(40.1162 14.0351)"/>
</clipPath>
</defs>
</svg>
