<svg width="120" height="120" viewBox="0 0 120 120" fill="none" xmlns="http://www.w3.org/2000/svg">
<path d="M96.6667 96.25V87.0833C96.6667 82.221 94.7352 77.5579 91.297 74.1197C87.8588 70.6815 83.1957 68.75 78.3334 68.75H41.6667C36.8044 68.75 32.1412 70.6815 28.7031 74.1197C25.2649 77.5579 23.3334 82.221 23.3334 87.0833V96.25M78.3334 32.0833C78.3334 42.2086 70.1253 50.4167 60 50.4167C49.8748 50.4167 41.6667 42.2086 41.6667 32.0833C41.6667 21.9581 49.8748 13.75 60 13.75C70.1253 13.75 78.3334 21.9581 78.3334 32.0833Z" stroke="#EC221F" stroke-linecap="round" stroke-linejoin="round"/>
<circle cx="60" cy="60" r="59.5" fill="#D9D9D9" fill-opacity="0.03" stroke="#FF6464"/>
</svg>
