<svg width="150" height="50" viewBox="0 0 150 50" fill="none" xmlns="http://www.w3.org/2000/svg">
<path d="M20 0.5H149.5V30C149.5 40.7696 140.77 49.5 130 49.5H0.5V20C0.5 9.23045 9.23045 0.500001 20 0.5Z" fill="url(#paint0_linear_923_208)" fill-opacity="0.3" stroke="url(#paint1_linear_923_208)"/>
<path d="M53.718 31.084C52.9807 31.084 52.304 30.9113 51.688 30.566C51.072 30.2207 50.582 29.7353 50.218 29.11C49.854 28.4753 49.672 27.7473 49.672 26.926C49.672 26.0113 49.8773 25.1387 50.288 24.308C50.708 23.468 51.2493 22.796 51.912 22.292C52.584 21.788 53.2747 21.536 53.984 21.536C54.3853 21.536 54.7307 21.5873 55.02 21.69C55.3093 21.7833 55.5847 21.914 55.846 22.082C55.874 22.026 55.9207 21.9793 55.986 21.942C56.0513 21.9047 56.126 21.886 56.21 21.886C56.3313 21.886 56.434 21.928 56.518 22.012C56.602 22.096 56.644 22.1987 56.644 22.32V23.216C56.644 23.3373 56.5973 23.4447 56.504 23.538C56.42 23.622 56.3173 23.664 56.196 23.664C56.0747 23.664 55.9673 23.622 55.874 23.538C55.79 23.454 55.748 23.3513 55.748 23.23V23.118C55.5427 22.922 55.3047 22.7587 55.034 22.628C54.7633 22.488 54.4133 22.418 53.984 22.418C53.4333 22.418 52.8967 22.628 52.374 23.048C51.8513 23.468 51.422 24.028 51.086 24.728C50.7593 25.4187 50.596 26.1513 50.596 26.926C50.596 27.5887 50.7407 28.1673 51.03 28.662C51.3193 29.1567 51.702 29.5393 52.178 29.81C52.654 30.0713 53.1673 30.202 53.718 30.202C54.7913 30.202 55.664 29.7633 56.336 28.886C56.392 28.8207 56.4433 28.7787 56.49 28.76C56.546 28.732 56.6113 28.718 56.686 28.718C56.8073 28.718 56.91 28.76 56.994 28.844C57.0873 28.9187 57.134 29.026 57.134 29.166C57.134 29.278 57.106 29.3667 57.05 29.432C56.658 29.964 56.1727 30.3747 55.594 30.664C55.0153 30.944 54.39 31.084 53.718 31.084ZM61.0856 31.084C60.5536 31.084 60.0683 30.944 59.6296 30.664C59.2003 30.3747 58.8596 29.9873 58.6076 29.502C58.3649 29.0073 58.2436 28.4613 58.2436 27.864C58.2436 27.2293 58.3836 26.6227 58.6636 26.044C58.9529 25.4653 59.3496 24.9987 59.8536 24.644C60.3576 24.28 60.9129 24.098 61.5196 24.098C62.0423 24.098 62.5183 24.2427 62.9476 24.532C63.3863 24.812 63.7269 25.1993 63.9696 25.694C64.2216 26.1793 64.3476 26.716 64.3476 27.304C64.3476 27.976 64.1983 28.6013 63.8996 29.18C63.6009 29.7587 63.1996 30.2207 62.6956 30.566C62.2009 30.9113 61.6643 31.084 61.0856 31.084ZM61.1416 30.286C61.5429 30.286 61.9209 30.1507 62.2756 29.88C62.6303 29.6093 62.9149 29.25 63.1296 28.802C63.3443 28.354 63.4516 27.878 63.4516 27.374C63.4516 26.9353 63.3629 26.5293 63.1856 26.156C63.0083 25.7733 62.7656 25.47 62.4576 25.246C62.1589 25.0127 61.8229 24.896 61.4496 24.896C61.0389 24.896 60.6563 25.036 60.3016 25.316C59.9563 25.5867 59.6763 25.9507 59.4616 26.408C59.2563 26.856 59.1536 27.332 59.1536 27.836C59.1536 28.3213 59.2423 28.7507 59.4196 29.124C59.6063 29.488 59.8536 29.7727 60.1616 29.978C60.4696 30.1833 60.7963 30.286 61.1416 30.286ZM66.5498 31.084C66.4284 31.084 66.3211 31.042 66.2278 30.958C66.1438 30.874 66.1018 30.7807 66.1018 30.678V24.504C66.1018 24.3827 66.1438 24.2847 66.2278 24.21C66.3211 24.126 66.4284 24.084 66.5498 24.084C66.6711 24.084 66.7738 24.126 66.8578 24.21C66.9418 24.2847 66.9838 24.3827 66.9838 24.504V26.716C67.2544 25.876 67.6278 25.232 68.1038 24.784C68.5891 24.3267 69.1351 24.098 69.7418 24.098C70.2551 24.098 70.6611 24.2287 70.9598 24.49C71.2584 24.7513 71.4731 25.1667 71.6038 25.736C71.7344 26.296 71.7998 27.052 71.7998 28.004C71.7998 28.9373 71.7951 29.5487 71.7858 29.838V30.636C71.7858 30.7573 71.7438 30.8647 71.6598 30.958C71.5851 31.042 71.4871 31.084 71.3658 31.084C71.2538 31.084 71.1558 31.042 71.0718 30.958C70.9878 30.8647 70.9458 30.762 70.9458 30.65V29.866C70.9364 29.5767 70.9318 28.9747 70.9318 28.06C70.9318 27.192 70.8851 26.534 70.7918 26.086C70.7078 25.638 70.5724 25.3347 70.3858 25.176C70.2084 25.008 69.9518 24.924 69.6158 24.924C69.2984 24.924 68.9858 25.0407 68.6778 25.274C68.3698 25.5073 68.0991 25.8387 67.8658 26.268C67.5578 26.828 67.3338 27.3553 67.1938 27.85C67.0631 28.3447 66.9931 28.8533 66.9838 29.376L66.9698 30.622C66.9698 30.7527 66.9278 30.8647 66.8438 30.958C66.7691 31.042 66.6711 31.084 66.5498 31.084ZM74.638 31.098C74.5167 31.098 74.4094 31.056 74.316 30.972C74.232 30.888 74.19 30.79 74.19 30.678V24.966H72.636C72.5147 24.966 72.412 24.924 72.328 24.84C72.244 24.7467 72.202 24.6393 72.202 24.518C72.202 24.3873 72.2487 24.2847 72.342 24.21C72.4354 24.126 72.5427 24.084 72.664 24.084H74.19V22.166C74.19 22.0447 74.232 21.942 74.316 21.858C74.4094 21.7647 74.5167 21.718 74.638 21.718C74.7687 21.718 74.8714 21.7647 74.946 21.858C75.03 21.942 75.072 22.0447 75.072 22.166V24.084H76.64C76.7707 24.084 76.878 24.126 76.962 24.21C77.046 24.294 77.088 24.3967 77.088 24.518C77.088 24.6393 77.0414 24.7467 76.948 24.84C76.864 24.924 76.7614 24.966 76.64 24.966H75.072V30.678C75.072 30.79 75.0254 30.888 74.932 30.972C74.848 31.056 74.75 31.098 74.638 31.098ZM82.0418 31.196C81.9018 31.196 81.7944 31.1493 81.7198 31.056C81.6451 30.972 81.6078 30.8647 81.6078 30.734V30.342C81.3558 30.566 81.0524 30.748 80.6978 30.888C80.3431 31.0187 79.9884 31.084 79.6338 31.084C79.1298 31.084 78.6771 30.958 78.2758 30.706C77.8744 30.454 77.5571 30.0993 77.3238 29.642C77.0998 29.1753 76.9878 28.648 76.9878 28.06C76.9878 27.4253 77.1184 26.8047 77.3798 26.198C77.6504 25.582 78.0378 25.078 78.5418 24.686C79.0551 24.294 79.6571 24.098 80.3478 24.098C80.7771 24.098 81.1551 24.154 81.4818 24.266C81.8084 24.378 82.1398 24.5133 82.4758 24.672V30.734C82.4758 30.8647 82.4338 30.972 82.3498 31.056C82.2658 31.1493 82.1631 31.196 82.0418 31.196ZM79.6338 30.258C79.9978 30.258 80.3618 30.174 80.7258 30.006C81.0898 29.8287 81.3698 29.642 81.5658 29.446L81.6218 25.204C81.4724 25.1387 81.2764 25.078 81.0338 25.022C80.8004 24.9567 80.5811 24.924 80.3758 24.924C79.9184 24.924 79.4984 25.0593 79.1158 25.33C78.7331 25.6007 78.4298 25.974 78.2058 26.45C77.9911 26.9167 77.8838 27.444 77.8838 28.032C77.8838 28.7133 78.0471 29.2547 78.3738 29.656C78.7004 30.0573 79.1204 30.258 79.6338 30.258ZM87.2585 31.084C86.7172 31.084 86.2085 30.9533 85.7325 30.692C85.2658 30.4213 84.8925 30.0527 84.6125 29.586C84.3418 29.1193 84.2065 28.606 84.2065 28.046C84.2065 27.4113 84.3512 26.7907 84.6405 26.184C84.9392 25.568 85.3312 25.0687 85.8165 24.686C86.3018 24.294 86.8058 24.098 87.3285 24.098C87.8138 24.098 88.2105 24.1773 88.5185 24.336C88.8358 24.4947 89.1392 24.742 89.4285 25.078C89.5032 25.1527 89.5405 25.2507 89.5405 25.372C89.5405 25.4933 89.4985 25.596 89.4145 25.68C89.3398 25.764 89.2418 25.806 89.1205 25.806C88.9898 25.806 88.8825 25.7547 88.7985 25.652C88.5932 25.4093 88.3832 25.2273 88.1685 25.106C87.9538 24.9753 87.6832 24.91 87.3565 24.91C86.9832 24.91 86.6192 25.0593 86.2645 25.358C85.9098 25.6567 85.6205 26.0487 85.3965 26.534C85.1725 27.01 85.0605 27.5047 85.0605 28.018C85.0605 28.4847 85.1678 28.8907 85.3825 29.236C85.6065 29.572 85.8865 29.8287 86.2225 30.006C86.5678 30.1833 86.9132 30.272 87.2585 30.272C88.0612 30.272 88.6865 29.95 89.1345 29.306C89.2558 29.138 89.3865 29.054 89.5265 29.054C89.6478 29.054 89.7505 29.096 89.8345 29.18C89.9185 29.264 89.9605 29.362 89.9605 29.474C89.9605 29.5673 89.9138 29.6747 89.8205 29.796C89.5778 30.1507 89.2278 30.454 88.7705 30.706C88.3132 30.958 87.8092 31.084 87.2585 31.084ZM92.2064 31.098C92.0851 31.098 91.9777 31.056 91.8844 30.972C91.8004 30.888 91.7584 30.79 91.7584 30.678V24.966H90.2044C90.0831 24.966 89.9804 24.924 89.8964 24.84C89.8124 24.7467 89.7704 24.6393 89.7704 24.518C89.7704 24.3873 89.8171 24.2847 89.9104 24.21C90.0037 24.126 90.1111 24.084 90.2324 24.084H91.7584V22.166C91.7584 22.0447 91.8004 21.942 91.8844 21.858C91.9777 21.7647 92.0851 21.718 92.2064 21.718C92.3371 21.718 92.4397 21.7647 92.5144 21.858C92.5984 21.942 92.6404 22.0447 92.6404 22.166V24.084H94.2084C94.3391 24.084 94.4464 24.126 94.5304 24.21C94.6144 24.294 94.6564 24.3967 94.6564 24.518C94.6564 24.6393 94.6097 24.7467 94.5164 24.84C94.4324 24.924 94.3297 24.966 94.2084 24.966H92.6404V30.678C92.6404 30.79 92.5937 30.888 92.5004 30.972C92.4164 31.056 92.3184 31.098 92.2064 31.098Z" fill="url(#paint2_linear_923_208)"/>
<defs>
<linearGradient id="paint0_linear_923_208" x1="9.5" y1="14" x2="135" y2="38.5" gradientUnits="userSpaceOnUse">
<stop offset="0.129808" stop-color="#B2FFFB"/>
<stop offset="0.894231" stop-color="#0CFF45" stop-opacity="0.98"/>
</linearGradient>
<linearGradient id="paint1_linear_923_208" x1="0" y1="25" x2="150" y2="25" gradientUnits="userSpaceOnUse">
<stop stop-color="#089904"/>
<stop offset="1" stop-color="#0EF7FF"/>
</linearGradient>
<linearGradient id="paint2_linear_923_208" x1="90.6241" y1="23.6166" x2="52.0609" y2="27.639" gradientUnits="userSpaceOnUse">
<stop stop-color="#10E31A"/>
<stop offset="0.995715" stop-color="#089904"/>
</linearGradient>
</defs>
</svg>
