<svg width="150" height="50" viewBox="0 0 150 50" fill="none" xmlns="http://www.w3.org/2000/svg">
<path d="M20 0.5H149.5V30C149.5 40.7696 140.77 49.5 130 49.5H0.5V20C0.5 9.23045 9.23045 0.500001 20 0.5Z" fill="#FF6464" fill-opacity="0.14" stroke="url(#paint0_linear_896_195)"/>
<path d="M57.5605 18.0176C57.4785 18.0176 57.3919 17.9993 57.3008 17.9629C56.7357 17.7533 55.9883 17.6484 55.0586 17.6484C54.7578 17.6484 54.4046 17.6712 53.999 17.7168C53.598 17.7578 53.1468 17.8239 52.6455 17.915L52.6318 20.8682C53.5114 20.6357 54.1722 20.5195 54.6143 20.5195C55.3161 20.5195 56.043 20.5605 56.7949 20.6426C57.2233 20.6882 57.4375 20.9206 57.4375 21.3398C57.4375 21.5449 57.3714 21.7158 57.2393 21.8525C57.1071 21.9847 56.943 22.0508 56.7471 22.0508C56.5101 22.0508 56.1546 22.0303 55.6807 21.9893C55.2067 21.9482 54.8512 21.9277 54.6143 21.9277C54.3044 21.9277 53.6344 22.0599 52.6045 22.3242L52.543 27.0273C52.543 27.2233 52.4792 27.3874 52.3516 27.5195C52.224 27.6562 52.0622 27.7246 51.8662 27.7246C51.6702 27.7246 51.5062 27.6562 51.374 27.5195C51.2464 27.3874 51.1826 27.2233 51.1826 27.0273C51.1826 26.1296 51.1986 24.7829 51.2305 22.9873C51.2669 21.1872 51.2852 19.8382 51.2852 18.9404C51.2852 18.7399 51.2806 18.4391 51.2715 18.0381C51.2669 17.6325 51.2646 17.3294 51.2646 17.1289C51.2646 16.9284 51.3262 16.7598 51.4492 16.623C51.5768 16.4863 51.7409 16.418 51.9414 16.418C52.0918 16.418 52.2262 16.459 52.3447 16.541C52.9098 16.4408 53.418 16.3678 53.8691 16.3223C54.3203 16.2721 54.7168 16.2471 55.0586 16.2471C55.5827 16.2471 56.182 16.3223 56.8564 16.4727C57.7725 16.6823 58.2305 16.9557 58.2305 17.293C58.2305 17.4753 58.1712 17.637 58.0527 17.7783C57.9206 17.9378 57.7565 18.0176 57.5605 18.0176ZM62.0176 27.4033C61.252 27.4033 60.5934 27.1208 60.042 26.5557C59.4268 25.9268 59.1032 25.0814 59.0713 24.0195C59.0439 22.9896 59.3037 22.0827 59.8506 21.2988C60.4886 20.3737 61.3773 19.9111 62.5166 19.9111C63.4281 19.9111 64.1185 20.3281 64.5879 21.1621C64.9616 21.8366 65.1416 22.6478 65.1279 23.5957C65.1143 24.6074 64.8499 25.471 64.335 26.1865C63.7516 26.9977 62.9792 27.4033 62.0176 27.4033ZM62.4277 21.2988C61.7578 21.2943 61.236 21.6133 60.8623 22.2559C60.5661 22.7708 60.418 23.3587 60.418 24.0195C60.418 24.6803 60.598 25.1953 60.958 25.5645C61.2588 25.8698 61.612 26.0225 62.0176 26.0225C62.4915 26.0225 62.8994 25.8493 63.2412 25.5029C63.6286 25.1201 63.8337 24.6029 63.8564 23.9512C63.9202 22.1875 63.444 21.3034 62.4277 21.2988ZM68.5596 21.627L68.457 25.0244C68.457 25.3844 68.4388 25.9131 68.4023 26.6104C68.3568 27.0661 68.1335 27.2939 67.7324 27.2939C67.2858 27.2939 67.0625 27.0615 67.0625 26.5967C67.0625 26.0452 67.0876 25.2181 67.1377 24.1152C67.1878 23.0078 67.2129 22.1784 67.2129 21.627C67.2129 20.9069 67.2243 20.0843 67.2471 19.1592C67.2699 18.2295 67.2812 17.4046 67.2812 16.6846C67.2812 16.2288 67.5046 16.001 67.9512 16.001C68.4023 16.001 68.6279 16.2288 68.6279 16.6846C68.6279 17.4046 68.6165 18.2295 68.5938 19.1592C68.571 20.0843 68.5596 20.9069 68.5596 21.627ZM72.4014 21.627L72.2988 25.0244C72.2988 25.3844 72.2806 25.9131 72.2441 26.6104C72.1986 27.0661 71.9753 27.2939 71.5742 27.2939C71.1276 27.2939 70.9043 27.0615 70.9043 26.5967C70.9043 26.0452 70.9294 25.2181 70.9795 24.1152C71.0296 23.0078 71.0547 22.1784 71.0547 21.627C71.0547 20.9069 71.0661 20.0843 71.0889 19.1592C71.1117 18.2295 71.123 17.4046 71.123 16.6846C71.123 16.2288 71.3464 16.001 71.793 16.001C72.2441 16.001 72.4697 16.2288 72.4697 16.6846C72.4697 17.4046 72.4583 18.2295 72.4355 19.1592C72.4128 20.0843 72.4014 20.9069 72.4014 21.627ZM77.0703 27.4033C76.3047 27.4033 75.6462 27.1208 75.0947 26.5557C74.4795 25.9268 74.1559 25.0814 74.124 24.0195C74.0967 22.9896 74.3564 22.0827 74.9033 21.2988C75.5413 20.3737 76.43 19.9111 77.5693 19.9111C78.4808 19.9111 79.1712 20.3281 79.6406 21.1621C80.0143 21.8366 80.1943 22.6478 80.1807 23.5957C80.167 24.6074 79.9027 25.471 79.3877 26.1865C78.8044 26.9977 78.0319 27.4033 77.0703 27.4033ZM77.4805 21.2988C76.8105 21.2943 76.2887 21.6133 75.915 22.2559C75.6188 22.7708 75.4707 23.3587 75.4707 24.0195C75.4707 24.6803 75.6507 25.1953 76.0107 25.5645C76.3115 25.8698 76.6647 26.0225 77.0703 26.0225C77.5443 26.0225 77.9521 25.8493 78.2939 25.5029C78.6813 25.1201 78.8864 24.6029 78.9092 23.9512C78.973 22.1875 78.4967 21.3034 77.4805 21.2988ZM90.0586 20.8818C89.7031 22.3675 89.2383 24.0469 88.6641 25.9199C88.5365 26.3346 88.3245 26.7607 88.0283 27.1982C87.8688 27.4398 87.6523 27.5583 87.3789 27.5537C86.8822 27.5446 86.4948 26.9271 86.2168 25.7012C86.1257 25.3092 86.0322 24.776 85.9365 24.1016L85.7109 22.5771L85.1504 23.8828L84.1113 26.7061C84.0521 26.8792 83.9655 27.0114 83.8516 27.1025C83.7148 27.3669 83.4961 27.5036 83.1953 27.5127C82.849 27.5264 82.514 26.8473 82.1904 25.4756C82.0264 24.7692 81.8623 23.8122 81.6982 22.6045L81.5342 21.5791C81.4749 21.1689 81.4453 20.8249 81.4453 20.5469C81.4453 20.3555 81.5114 20.1982 81.6436 20.0752C81.7803 19.9476 81.9443 19.8838 82.1357 19.8838C82.4821 19.8838 82.6963 20.0729 82.7783 20.4512C82.8376 20.7201 82.8854 21.0527 82.9219 21.4492L83.0244 22.4541L83.4277 25.5234C83.9336 24.1198 84.4577 22.502 85 20.6699C85.1504 20.1641 85.4124 19.9111 85.7861 19.9111C86.1462 19.9111 86.39 20.1937 86.5176 20.7588C86.6361 21.292 86.7842 22.1123 86.9619 23.2197C87.1442 24.3682 87.306 25.2637 87.4473 25.9062L87.9463 24.0469L88.8281 20.3213C88.8965 20.0433 89.0924 19.9043 89.416 19.9043C89.6074 19.9043 89.7738 19.9704 89.915 20.1025C90.0563 20.2301 90.127 20.3851 90.127 20.5674C90.127 20.5902 90.1042 20.695 90.0586 20.8818Z" fill="url(#paint1_linear_896_195)"/>
<defs>
<linearGradient id="paint0_linear_896_195" x1="0" y1="25" x2="150" y2="25" gradientUnits="userSpaceOnUse">
<stop stop-color="#FFA91F"/>
<stop offset="1" stop-color="#FF6464"/>
</linearGradient>
<linearGradient id="paint1_linear_896_195" x1="88.961" y1="17.2222" x2="52.8005" y2="27.2854" gradientUnits="userSpaceOnUse">
<stop stop-color="#EC221F"/>
<stop offset="1" stop-color="#FFB744"/>
</linearGradient>
</defs>
</svg>
