<svg width="150" height="50" viewBox="0 0 150 50" fill="none" xmlns="http://www.w3.org/2000/svg">
<path d="M20 0.5H149.5V30C149.5 40.7696 140.77 49.5 130 49.5H0.5V20C0.5 9.23045 9.23045 0.500001 20 0.5Z" fill="#FF6464" fill-opacity="0.14" stroke="url(#paint0_linear_896_195)"/>
<path d="M51.3081 30.1886V28.3611C51.3081 27.3917 50.9038 26.4621 50.1842 25.7766C49.4646 25.0912 48.4885 24.7061 47.4709 24.7061H39.7964C38.7787 24.7061 37.8027 25.0912 37.0831 25.7766C36.3635 26.4621 35.9592 27.3917 35.9592 28.3611V30.1886M57.0639 30.1886V28.3611C57.0632 27.5513 56.7803 26.7646 56.2594 26.1245C55.7385 25.4845 55.0092 25.0274 54.186 24.8249M50.3488 13.86C51.1742 14.0613 51.9057 14.5185 52.4282 15.1596C52.9506 15.8007 53.2342 16.5892 53.2342 17.4008C53.2342 18.2123 52.9506 19.0008 52.4282 19.6419C51.9057 20.283 51.1742 20.7402 50.3488 20.9415M47.4709 17.3962C47.4709 19.4148 45.7529 21.0512 43.6336 21.0512C41.5144 21.0512 39.7964 19.4148 39.7964 17.3962C39.7964 15.3776 41.5144 13.7412 43.6336 13.7412C45.7529 13.7412 47.4709 15.3776 47.4709 17.3962Z" stroke="#EC221F" stroke-linecap="round" stroke-linejoin="round"/>
<path d="M57.5437 19.6806H54.6658V18.7669H57.5437V16.0256H58.503V18.7669H61.3809V19.6806H58.503V22.4218H57.5437V19.6806Z" fill="#FF5F57"/>
<path d="M71.5605 18.0176C71.4785 18.0176 71.3919 17.9993 71.3008 17.9629C70.7357 17.7533 69.9883 17.6484 69.0586 17.6484C68.7578 17.6484 68.4046 17.6712 67.999 17.7168C67.598 17.7578 67.1468 17.8239 66.6455 17.915L66.6318 20.8682C67.5114 20.6357 68.1722 20.5195 68.6143 20.5195C69.3161 20.5195 70.043 20.5605 70.7949 20.6426C71.2233 20.6882 71.4375 20.9206 71.4375 21.3398C71.4375 21.5449 71.3714 21.7158 71.2393 21.8525C71.1071 21.9847 70.943 22.0508 70.7471 22.0508C70.5101 22.0508 70.1546 22.0303 69.6807 21.9893C69.2067 21.9482 68.8512 21.9277 68.6143 21.9277C68.3044 21.9277 67.6344 22.0599 66.6045 22.3242L66.543 27.0273C66.543 27.2233 66.4792 27.3874 66.3516 27.5195C66.224 27.6562 66.0622 27.7246 65.8662 27.7246C65.6702 27.7246 65.5062 27.6562 65.374 27.5195C65.2464 27.3874 65.1826 27.2233 65.1826 27.0273C65.1826 26.1296 65.1986 24.7829 65.2305 22.9873C65.2669 21.1872 65.2852 19.8382 65.2852 18.9404C65.2852 18.7399 65.2806 18.4391 65.2715 18.0381C65.2669 17.6325 65.2646 17.3294 65.2646 17.1289C65.2646 16.9284 65.3262 16.7598 65.4492 16.623C65.5768 16.4863 65.7409 16.418 65.9414 16.418C66.0918 16.418 66.2262 16.459 66.3447 16.541C66.9098 16.4408 67.418 16.3678 67.8691 16.3223C68.3203 16.2721 68.7168 16.2471 69.0586 16.2471C69.5827 16.2471 70.182 16.3223 70.8564 16.4727C71.7725 16.6823 72.2305 16.9557 72.2305 17.293C72.2305 17.4753 72.1712 17.637 72.0527 17.7783C71.9206 17.9378 71.7565 18.0176 71.5605 18.0176ZM76.0176 27.4033C75.252 27.4033 74.5934 27.1208 74.042 26.5557C73.4268 25.9268 73.1032 25.0814 73.0713 24.0195C73.0439 22.9896 73.3037 22.0827 73.8506 21.2988C74.4886 20.3737 75.3773 19.9111 76.5166 19.9111C77.4281 19.9111 78.1185 20.3281 78.5879 21.1621C78.9616 21.8366 79.1416 22.6478 79.1279 23.5957C79.1143 24.6074 78.8499 25.471 78.335 26.1865C77.7516 26.9977 76.9792 27.4033 76.0176 27.4033ZM76.4277 21.2988C75.7578 21.2943 75.236 21.6133 74.8623 22.2559C74.5661 22.7708 74.418 23.3587 74.418 24.0195C74.418 24.6803 74.598 25.1953 74.958 25.5645C75.2588 25.8698 75.612 26.0225 76.0176 26.0225C76.4915 26.0225 76.8994 25.8493 77.2412 25.5029C77.6286 25.1201 77.8337 24.6029 77.8564 23.9512C77.9202 22.1875 77.444 21.3034 76.4277 21.2988ZM82.5596 21.627L82.457 25.0244C82.457 25.3844 82.4388 25.9131 82.4023 26.6104C82.3568 27.0661 82.1335 27.2939 81.7324 27.2939C81.2858 27.2939 81.0625 27.0615 81.0625 26.5967C81.0625 26.0452 81.0876 25.2181 81.1377 24.1152C81.1878 23.0078 81.2129 22.1784 81.2129 21.627C81.2129 20.9069 81.2243 20.0843 81.2471 19.1592C81.2699 18.2295 81.2812 17.4046 81.2812 16.6846C81.2812 16.2288 81.5046 16.001 81.9512 16.001C82.4023 16.001 82.6279 16.2288 82.6279 16.6846C82.6279 17.4046 82.6165 18.2295 82.5938 19.1592C82.571 20.0843 82.5596 20.9069 82.5596 21.627ZM86.4014 21.627L86.2988 25.0244C86.2988 25.3844 86.2806 25.9131 86.2441 26.6104C86.1986 27.0661 85.9753 27.2939 85.5742 27.2939C85.1276 27.2939 84.9043 27.0615 84.9043 26.5967C84.9043 26.0452 84.9294 25.2181 84.9795 24.1152C85.0296 23.0078 85.0547 22.1784 85.0547 21.627C85.0547 20.9069 85.0661 20.0843 85.0889 19.1592C85.1117 18.2295 85.123 17.4046 85.123 16.6846C85.123 16.2288 85.3464 16.001 85.793 16.001C86.2441 16.001 86.4697 16.2288 86.4697 16.6846C86.4697 17.4046 86.4583 18.2295 86.4355 19.1592C86.4128 20.0843 86.4014 20.9069 86.4014 21.627ZM91.0703 27.4033C90.3047 27.4033 89.6462 27.1208 89.0947 26.5557C88.4795 25.9268 88.1559 25.0814 88.124 24.0195C88.0967 22.9896 88.3564 22.0827 88.9033 21.2988C89.5413 20.3737 90.43 19.9111 91.5693 19.9111C92.4808 19.9111 93.1712 20.3281 93.6406 21.1621C94.0143 21.8366 94.1943 22.6478 94.1807 23.5957C94.167 24.6074 93.9027 25.471 93.3877 26.1865C92.8044 26.9977 92.0319 27.4033 91.0703 27.4033ZM91.4805 21.2988C90.8105 21.2943 90.2887 21.6133 89.915 22.2559C89.6188 22.7708 89.4707 23.3587 89.4707 24.0195C89.4707 24.6803 89.6507 25.1953 90.0107 25.5645C90.3115 25.8698 90.6647 26.0225 91.0703 26.0225C91.5443 26.0225 91.9521 25.8493 92.2939 25.5029C92.6813 25.1201 92.8864 24.6029 92.9092 23.9512C92.973 22.1875 92.4967 21.3034 91.4805 21.2988ZM104.059 20.8818C103.703 22.3675 103.238 24.0469 102.664 25.9199C102.536 26.3346 102.325 26.7607 102.028 27.1982C101.869 27.4398 101.652 27.5583 101.379 27.5537C100.882 27.5446 100.495 26.9271 100.217 25.7012C100.126 25.3092 100.032 24.776 99.9365 24.1016L99.7109 22.5771L99.1504 23.8828L98.1113 26.7061C98.0521 26.8792 97.9655 27.0114 97.8516 27.1025C97.7148 27.3669 97.4961 27.5036 97.1953 27.5127C96.849 27.5264 96.514 26.8473 96.1904 25.4756C96.0264 24.7692 95.8623 23.8122 95.6982 22.6045L95.5342 21.5791C95.4749 21.1689 95.4453 20.8249 95.4453 20.5469C95.4453 20.3555 95.5114 20.1982 95.6436 20.0752C95.7803 19.9476 95.9443 19.8838 96.1357 19.8838C96.4821 19.8838 96.6963 20.0729 96.7783 20.4512C96.8376 20.7201 96.8854 21.0527 96.9219 21.4492L97.0244 22.4541L97.4277 25.5234C97.9336 24.1198 98.4577 22.502 99 20.6699C99.1504 20.1641 99.4124 19.9111 99.7861 19.9111C100.146 19.9111 100.39 20.1937 100.518 20.7588C100.636 21.292 100.784 22.1123 100.962 23.2197C101.144 24.3682 101.306 25.2637 101.447 25.9062L101.946 24.0469L102.828 20.3213C102.896 20.0433 103.092 19.9043 103.416 19.9043C103.607 19.9043 103.774 19.9704 103.915 20.1025C104.056 20.2301 104.127 20.3851 104.127 20.5674C104.127 20.5902 104.104 20.695 104.059 20.8818Z" fill="url(#paint1_linear_896_195)"/>
<defs>
<linearGradient id="paint0_linear_896_195" x1="0" y1="25" x2="150" y2="25" gradientUnits="userSpaceOnUse">
<stop stop-color="#FFA91F"/>
<stop offset="1" stop-color="#FF6464"/>
</linearGradient>
<linearGradient id="paint1_linear_896_195" x1="102.961" y1="17.2222" x2="66.8005" y2="27.2854" gradientUnits="userSpaceOnUse">
<stop stop-color="#EC221F"/>
<stop offset="1" stop-color="#FFB744"/>
</linearGradient>
</defs>
</svg>
