<svg width="150" height="50" viewBox="0 0 150 50" fill="none" xmlns="http://www.w3.org/2000/svg">
<path d="M20 0.5H149.5V30C149.5 40.7696 140.77 49.5 130 49.5H0.5V20L0.506836 19.4971C0.773602 8.95996 9.3986 0.500001 20 0.5Z" fill="#FF6464" fill-opacity="0.14" stroke="url(#paint0_linear_896_195)"/>
<path d="M25.3081 33.1886V31.3611C25.3081 30.3917 24.9038 29.4621 24.1842 28.7766C23.4646 28.0912 22.4885 27.7061 21.4709 27.7061H13.7964C12.7787 27.7061 11.8027 28.0912 11.0831 28.7766C10.3635 29.4621 9.95923 30.3917 9.95923 31.3611V33.1886M31.0639 33.1886V31.3611C31.0632 30.5513 30.7803 29.7646 30.2594 29.1245C29.7385 28.4845 29.0092 28.0274 28.186 27.8249M24.3488 16.86C25.1742 17.0613 25.9057 17.5185 26.4282 18.1596C26.9506 18.8007 27.2342 19.5892 27.2342 20.4008C27.2342 21.2123 26.9506 22.0008 26.4282 22.6419C25.9057 23.283 25.1742 23.7402 24.3488 23.9415M21.4709 20.3962C21.4709 22.4148 19.7529 24.0512 17.6336 24.0512C15.5144 24.0512 13.7964 22.4148 13.7964 20.3962C13.7964 18.3776 15.5144 16.7412 17.6336 16.7412C19.7529 16.7412 21.4709 18.3776 21.4709 20.3962Z" stroke="#EC221F" stroke-linecap="round" stroke-linejoin="round"/>
<path d="M31.5437 22.6806H28.6658V21.7669H31.5437V19.0256H32.503V21.7669H35.3809V22.6806H32.503V25.4218H31.5437V22.6806Z" fill="#FF5F57"/>
<path d="M49.5449 30.2051C49.1257 30.2051 48.7611 29.6673 48.4512 28.5918C48.3327 28.1816 48.1846 27.4639 48.0068 26.4385C47.542 26.5023 46.9336 26.6162 46.1816 26.7803L44.3633 27.1562C44.1354 27.7533 43.7458 28.626 43.1943 29.7744C43.0485 30.0296 42.8503 30.1572 42.5996 30.1572C42.4173 30.1572 42.2533 30.0911 42.1074 29.959C41.9661 29.8268 41.8955 29.6628 41.8955 29.4668C41.8955 29.248 42.2396 28.4163 42.9277 26.9717C42.8503 26.8532 42.8115 26.7165 42.8115 26.5615C42.8115 26.1924 43.0348 25.9554 43.4814 25.8506C44.001 24.8753 44.6572 23.7542 45.4502 22.4873C46.5303 20.7601 47.2025 19.8965 47.4668 19.8965C47.8268 19.8965 48.0729 20.1471 48.2051 20.6484L48.6357 22.9453L49.6543 27.6963L50.0439 28.7764C50.1761 29.1455 50.2422 29.3916 50.2422 29.5146C50.2422 29.7106 50.1715 29.8747 50.0303 30.0068C49.889 30.139 49.7272 30.2051 49.5449 30.2051ZM47.1318 22.3916L45.1768 25.543C45.7282 25.4017 46.5645 25.2308 47.6855 25.0303L47.1318 22.3916ZM58.4863 23.9639C58.4316 24.6338 58.4043 25.3037 58.4043 25.9736C58.4043 27.4912 58.4749 28.6374 58.6162 29.4121C58.6253 29.4759 58.6299 29.5283 58.6299 29.5693C58.6299 29.7516 58.5661 29.902 58.4385 30.0205C58.3109 30.139 58.1628 30.1982 57.9941 30.1982C57.7116 30.1982 57.5042 29.9932 57.3721 29.583C57.0439 29.8245 56.7021 30.0068 56.3467 30.1299C55.9958 30.2529 55.6289 30.3145 55.2461 30.3145C54.3027 30.3145 53.5212 30 52.9014 29.3711C52.2633 28.7285 51.9443 27.9036 51.9443 26.8965C51.9443 25.6797 52.2656 24.7044 52.9082 23.9707C53.5553 23.237 54.3939 22.8701 55.4238 22.8701C55.9525 22.8701 56.3604 22.9521 56.6475 23.1162L57.29 23.5879C57.3538 21.6693 57.429 20.3773 57.5156 19.7119C57.5749 19.3063 57.7822 19.1035 58.1377 19.1035C58.5524 19.1035 58.7598 19.3245 58.7598 19.7666C58.7598 20.4001 58.6686 21.7992 58.4863 23.9639ZM55.4512 24.1416C54.6855 24.1416 54.1113 24.3695 53.7285 24.8252C53.3457 25.2764 53.1543 25.9577 53.1543 26.8691C53.1543 27.457 53.3617 27.9629 53.7764 28.3867C54.1956 28.8105 54.6855 29.0225 55.2461 29.0225C55.6289 29.0225 55.9525 28.9518 56.2168 28.8105C56.3717 28.7285 56.6247 28.5394 56.9756 28.2432C57.0439 28.1839 57.11 28.1133 57.1738 28.0312L57.1533 26.8486L57.1602 26.0557L57.1738 25.249C57.0007 24.8799 56.7705 24.6042 56.4834 24.4219C56.1963 24.235 55.8522 24.1416 55.4512 24.1416ZM66.7168 23.9639C66.6621 24.6338 66.6348 25.3037 66.6348 25.9736C66.6348 27.4912 66.7054 28.6374 66.8467 29.4121C66.8558 29.4759 66.8604 29.5283 66.8604 29.5693C66.8604 29.7516 66.7965 29.902 66.6689 30.0205C66.5413 30.139 66.3932 30.1982 66.2246 30.1982C65.9421 30.1982 65.7347 29.9932 65.6025 29.583C65.2744 29.8245 64.9326 30.0068 64.5771 30.1299C64.2262 30.2529 63.8594 30.3145 63.4766 30.3145C62.5332 30.3145 61.7516 30 61.1318 29.3711C60.4938 28.7285 60.1748 27.9036 60.1748 26.8965C60.1748 25.6797 60.4961 24.7044 61.1387 23.9707C61.7858 23.237 62.6243 22.8701 63.6543 22.8701C64.1829 22.8701 64.5908 22.9521 64.8779 23.1162L65.5205 23.5879C65.5843 21.6693 65.6595 20.3773 65.7461 19.7119C65.8053 19.3063 66.0127 19.1035 66.3682 19.1035C66.7829 19.1035 66.9902 19.3245 66.9902 19.7666C66.9902 20.4001 66.8991 21.7992 66.7168 23.9639ZM63.6816 24.1416C62.916 24.1416 62.3418 24.3695 61.959 24.8252C61.5762 25.2764 61.3848 25.9577 61.3848 26.8691C61.3848 27.457 61.5921 27.9629 62.0068 28.3867C62.4261 28.8105 62.916 29.0225 63.4766 29.0225C63.8594 29.0225 64.1829 28.9518 64.4473 28.8105C64.6022 28.7285 64.8551 28.5394 65.2061 28.2432C65.2744 28.1839 65.3405 28.1133 65.4043 28.0312L65.3838 26.8486L65.3906 26.0557L65.4043 25.249C65.2311 24.8799 65.001 24.6042 64.7139 24.4219C64.4268 24.235 64.0827 24.1416 63.6816 24.1416ZM78.1738 30.4512C78.0872 30.4512 77.93 30.3509 77.7021 30.1504C77.4971 29.9635 77.3444 29.7972 77.2441 29.6514C76.8066 29.8883 76.4215 30.0661 76.0889 30.1846C75.7562 30.3076 75.4782 30.3691 75.2549 30.3691C74.1885 30.3691 73.4115 30.0684 72.9238 29.4668C72.4635 28.9017 72.2334 28.0358 72.2334 26.8691C72.2334 25.7663 72.6117 24.8229 73.3682 24.0391C74.1292 23.2552 75.0361 22.8633 76.0889 22.8633C76.4854 22.8633 76.9297 22.9658 77.4219 23.1709C78.0417 23.4261 78.3516 23.7337 78.3516 24.0938C78.3516 24.2168 78.306 24.3262 78.2148 24.4219C78.1693 24.5951 78.1328 24.8799 78.1055 25.2764C78.0827 25.6729 78.069 26.181 78.0645 26.8008C78.0599 27.3659 78.0986 27.8125 78.1807 28.1406C78.2262 28.3411 78.3698 28.7422 78.6113 29.3438C78.6432 29.4258 78.6956 29.5465 78.7686 29.7061L78.8096 29.8223C78.8096 30.0046 78.7458 30.1549 78.6182 30.2734C78.4906 30.3919 78.3424 30.4512 78.1738 30.4512ZM76.752 25.7002C76.752 25.5042 76.7633 25.2923 76.7861 25.0645C76.8135 24.832 76.8522 24.5859 76.9023 24.3262C76.7337 24.2396 76.5879 24.1758 76.4648 24.1348C76.3464 24.0938 76.2507 24.0732 76.1777 24.0732C75.4714 24.0732 74.8607 24.3626 74.3457 24.9414C73.8353 25.5156 73.5801 26.1787 73.5801 26.9307C73.5801 27.6781 73.7122 28.2386 73.9766 28.6123C74.2409 28.986 74.6374 29.1729 75.166 29.1729C75.6035 29.1729 75.9749 29.0931 76.2803 28.9336C76.4443 28.847 76.6745 28.6738 76.9707 28.4141C76.8249 27.2064 76.752 26.3018 76.752 25.7002ZM84.6133 24.7363C84.3626 24.7363 84.1872 24.652 84.0869 24.4834C84.0186 24.3649 83.9593 24.1188 83.9092 23.7451C83.5674 23.8317 83.041 23.9912 82.3301 24.2236C81.5964 24.5153 81.2272 24.8753 81.2227 25.3037C81.3594 25.3538 81.4938 25.3903 81.626 25.4131C82.6742 25.5999 83.4535 25.8574 83.9639 26.1855C84.7067 26.6641 85.0781 27.3568 85.0781 28.2637C85.0781 29.0065 84.7568 29.5671 84.1143 29.9453C83.5811 30.2552 82.9066 30.4102 82.0908 30.4102C81.4938 30.4102 80.9242 30.3099 80.3818 30.1094C79.68 29.8542 79.3291 29.4987 79.3291 29.043C79.3291 28.8607 79.3997 28.7012 79.541 28.5645C79.6868 28.4277 79.8509 28.3594 80.0332 28.3594C80.1745 28.3594 80.3568 28.4688 80.5801 28.6875C80.6895 28.7923 80.9355 28.8789 81.3184 28.9473C81.6237 29.002 81.8812 29.0293 82.0908 29.0293C82.4736 29.0293 82.8109 28.9837 83.1025 28.8926C83.5264 28.7604 83.7383 28.5508 83.7383 28.2637C83.7383 27.6439 83.3053 27.2246 82.4395 27.0059L81.7285 26.8486C81.1224 26.7165 80.6917 26.5615 80.4365 26.3838C80.0674 26.1286 79.8828 25.7435 79.8828 25.2285C79.8828 24.276 80.3317 23.597 81.2295 23.1914C81.5029 23.0684 81.9404 22.9225 82.542 22.7539C83.1436 22.5807 83.5742 22.4349 83.834 22.3164C84.0208 22.2344 84.2236 22.1934 84.4424 22.1934C84.6383 22.1934 84.7979 22.2572 84.9209 22.3848C85.0485 22.5124 85.1123 22.6787 85.1123 22.8838C85.1123 23.016 85.1396 23.2096 85.1943 23.4648C85.2536 23.7201 85.2832 23.9137 85.2832 24.0459C85.2832 24.251 85.2194 24.4173 85.0918 24.5449C84.9688 24.6725 84.8092 24.7363 84.6133 24.7363ZM95.5986 20.3887C94.4958 20.3887 93.8783 21.1543 93.7461 22.6855L93.7256 23.1094C94.5003 23.0547 95.0016 23.0273 95.2295 23.0273C95.9541 23.0273 96.3164 23.2552 96.3164 23.7109C96.3164 24.0436 96.1387 24.2419 95.7832 24.3057C95.6283 24.333 95.446 24.3444 95.2363 24.3398C95.0312 24.3307 94.5072 24.3604 93.6641 24.4287L93.6094 25.9873C93.6094 26.2699 93.6185 26.6937 93.6367 27.2588C93.6549 27.8239 93.6641 28.2454 93.6641 28.5234C93.6641 29.3893 93.6139 30.0638 93.5137 30.5469C93.4362 30.9115 93.2243 31.0938 92.8779 31.0938C92.6911 31.0938 92.5316 31.0322 92.3994 30.9092C92.2673 30.7907 92.2012 30.6403 92.2012 30.458C92.2012 30.4215 92.2057 30.376 92.2148 30.3213C92.3105 29.7288 92.3584 29.084 92.3584 28.3867L92.3379 26.5205V24.5381C91.7682 24.5837 91.4082 24.6064 91.2578 24.6064C90.7975 24.6064 90.5674 24.3854 90.5674 23.9434C90.5674 23.4922 90.9661 23.2552 91.7637 23.2324L92.4199 23.2119C92.4336 22.9567 92.4678 22.6104 92.5225 22.1729C92.641 21.1611 92.8962 20.416 93.2881 19.9375C93.762 19.3587 94.5026 19.0693 95.5098 19.0693C96.1615 19.0693 96.4873 19.2904 96.4873 19.7324C96.4873 20.1699 96.1911 20.3887 95.5986 20.3887ZM103.446 24.9482C103.414 25.5179 103.187 25.8027 102.763 25.8027C102.371 25.8027 102.175 25.5771 102.175 25.126C102.175 25.0394 102.168 24.8799 102.154 24.6475L102.134 24.0732C101.414 24.1598 100.837 24.3626 100.404 24.6816C99.9987 24.9779 99.6615 25.4245 99.3926 26.0215L99.4062 29.7676C99.4062 30.2279 99.1807 30.458 98.7295 30.458C98.3285 30.458 98.1279 30.2279 98.1279 29.7676V24.9688C98.1279 24.8184 98.1325 24.5928 98.1416 24.292C98.1553 23.9912 98.1621 23.7656 98.1621 23.6152C98.1621 23.1549 98.3626 22.9248 98.7637 22.9248C99.2103 22.9248 99.4359 23.3031 99.4404 24.0596C100.315 23.2165 101.286 22.7949 102.353 22.7949C102.722 22.7949 102.997 22.9339 103.18 23.2119C103.362 23.4899 103.453 23.9092 103.453 24.4697C103.453 24.7067 103.451 24.8662 103.446 24.9482ZM106.16 21.3457C105.941 21.3457 105.752 21.2682 105.593 21.1133C105.433 20.9583 105.354 20.7715 105.354 20.5527C105.354 20.334 105.433 20.1471 105.593 19.9922C105.752 19.8372 105.941 19.7598 106.16 19.7598C106.379 19.7598 106.566 19.8372 106.721 19.9922C106.88 20.1471 106.96 20.334 106.96 20.5527C106.96 20.7715 106.88 20.9583 106.721 21.1133C106.566 21.2682 106.379 21.3457 106.16 21.3457ZM106.468 26.8965C106.468 27.1699 106.475 27.5801 106.488 28.127C106.507 28.6693 106.516 29.0771 106.516 29.3506C106.516 29.5511 106.454 29.7152 106.331 29.8428C106.208 29.9704 106.046 30.0342 105.846 30.0342C105.65 30.0342 105.488 29.9704 105.36 29.8428C105.237 29.7152 105.176 29.5511 105.176 29.3506C105.176 29.0771 105.167 28.6693 105.148 28.127C105.135 27.5801 105.128 27.1699 105.128 26.8965C105.128 26.4681 105.151 25.9349 105.196 25.2969C105.242 24.6543 105.265 24.1188 105.265 23.6904C105.265 23.4854 105.326 23.319 105.449 23.1914C105.577 23.0638 105.739 23 105.935 23C106.131 23 106.29 23.0638 106.413 23.1914C106.541 23.319 106.604 23.4854 106.604 23.6904C106.604 24.1188 106.582 24.6543 106.536 25.2969C106.491 25.9349 106.468 26.4681 106.468 26.8965ZM111.971 30.3145C110.941 30.3145 110.107 30.057 109.469 29.542C108.771 28.9723 108.423 28.1748 108.423 27.1494C108.423 25.9645 108.71 24.971 109.284 24.1689C109.909 23.2939 110.743 22.8564 111.786 22.8564C112.543 22.8564 113.16 22.984 113.639 23.2393C114.227 23.5537 114.521 24.0368 114.521 24.6885C114.521 25.1442 114.263 25.5589 113.748 25.9326C113.52 26.0967 113.037 26.3519 112.299 26.6982L109.688 27.9355C109.943 28.3138 110.259 28.5986 110.638 28.79C111.021 28.9814 111.465 29.0771 111.971 29.0771C112.285 29.0771 112.654 29.0179 113.078 28.8994C113.616 28.749 113.962 28.5531 114.117 28.3115C114.272 28.0654 114.438 27.9424 114.616 27.9424C114.776 27.9424 114.917 28.0039 115.04 28.127C115.168 28.2454 115.231 28.3844 115.231 28.5439C115.231 29.0498 114.824 29.485 114.008 29.8496C113.311 30.1595 112.632 30.3145 111.971 30.3145ZM111.786 24.0869C111.23 24.0869 110.768 24.3034 110.398 24.7363C110.029 25.1647 109.754 25.8118 109.571 26.6777L111.67 25.6797C112.495 25.2786 113.083 24.93 113.434 24.6338C113.042 24.2692 112.493 24.0869 111.786 24.0869ZM121.691 30.4854C121.299 30.4854 121.078 30.2712 121.028 29.8428L120.837 28.3457C120.773 27.8125 120.741 27.3135 120.741 26.8486C120.741 26.721 120.748 26.5046 120.762 26.1992C120.78 25.8939 120.789 25.6774 120.789 25.5498C120.789 24.5654 120.607 24.0732 120.242 24.0732C119.732 24.0732 119.244 24.3763 118.779 24.9824C118.36 25.5339 118.032 26.2311 117.795 27.0742C117.786 27.252 117.765 27.4753 117.733 27.7441C117.706 27.972 117.692 28.193 117.692 28.4072C117.692 28.5439 117.706 28.749 117.733 29.0225C117.761 29.2959 117.774 29.501 117.774 29.6377C117.774 29.8428 117.711 30.0091 117.583 30.1367C117.46 30.2643 117.3 30.3281 117.104 30.3281C116.904 30.3281 116.742 30.2643 116.619 30.1367C116.496 30.0091 116.435 29.8428 116.435 29.6377C116.435 29.501 116.419 29.2959 116.387 29.0225C116.359 28.749 116.346 28.5439 116.346 28.4072C116.346 27.9378 116.378 27.2884 116.441 26.459C116.51 25.625 116.544 24.9733 116.544 24.5039C116.544 24.3581 116.535 24.1416 116.517 23.8545C116.503 23.5674 116.496 23.3509 116.496 23.2051C116.496 23.0091 116.56 22.8496 116.688 22.7266C116.82 22.599 116.981 22.5352 117.173 22.5352C117.592 22.5352 117.822 22.8314 117.863 23.4238L117.884 24.2236C118.649 23.2028 119.436 22.6924 120.242 22.6924C120.971 22.6924 121.479 23.0137 121.767 23.6562C121.963 24.0846 122.07 24.7181 122.088 25.5566V26.2471L122.081 26.8828C122.081 27.2611 122.129 27.751 122.225 28.3525C122.325 28.9495 122.375 29.4349 122.375 29.8086C122.375 30.0091 122.309 30.1709 122.177 30.2939C122.049 30.4215 121.887 30.4854 121.691 30.4854ZM130.072 23.9639C130.018 24.6338 129.99 25.3037 129.99 25.9736C129.99 27.4912 130.061 28.6374 130.202 29.4121C130.211 29.4759 130.216 29.5283 130.216 29.5693C130.216 29.7516 130.152 29.902 130.024 30.0205C129.897 30.139 129.749 30.1982 129.58 30.1982C129.298 30.1982 129.09 29.9932 128.958 29.583C128.63 29.8245 128.288 30.0068 127.933 30.1299C127.582 30.2529 127.215 30.3145 126.832 30.3145C125.889 30.3145 125.107 30 124.487 29.3711C123.849 28.7285 123.53 27.9036 123.53 26.8965C123.53 25.6797 123.852 24.7044 124.494 23.9707C125.141 23.237 125.98 22.8701 127.01 22.8701C127.538 22.8701 127.946 22.9521 128.233 23.1162L128.876 23.5879C128.94 21.6693 129.015 20.3773 129.102 19.7119C129.161 19.3063 129.368 19.1035 129.724 19.1035C130.138 19.1035 130.346 19.3245 130.346 19.7666C130.346 20.4001 130.255 21.7992 130.072 23.9639ZM127.037 24.1416C126.271 24.1416 125.697 24.3695 125.314 24.8252C124.932 25.2764 124.74 25.9577 124.74 26.8691C124.74 27.457 124.948 27.9629 125.362 28.3867C125.782 28.8105 126.271 29.0225 126.832 29.0225C127.215 29.0225 127.538 28.9518 127.803 28.8105C127.958 28.7285 128.211 28.5394 128.562 28.2432C128.63 28.1839 128.696 28.1133 128.76 28.0312L128.739 26.8486L128.746 26.0557L128.76 25.249C128.587 24.8799 128.356 24.6042 128.069 24.4219C127.782 24.235 127.438 24.1416 127.037 24.1416ZM136.621 24.7363C136.37 24.7363 136.195 24.652 136.095 24.4834C136.026 24.3649 135.967 24.1188 135.917 23.7451C135.575 23.8317 135.049 23.9912 134.338 24.2236C133.604 24.5153 133.235 24.8753 133.23 25.3037C133.367 25.3538 133.502 25.3903 133.634 25.4131C134.682 25.5999 135.461 25.8574 135.972 26.1855C136.715 26.6641 137.086 27.3568 137.086 28.2637C137.086 29.0065 136.765 29.5671 136.122 29.9453C135.589 30.2552 134.914 30.4102 134.099 30.4102C133.502 30.4102 132.932 30.3099 132.39 30.1094C131.688 29.8542 131.337 29.4987 131.337 29.043C131.337 28.8607 131.408 28.7012 131.549 28.5645C131.695 28.4277 131.859 28.3594 132.041 28.3594C132.182 28.3594 132.365 28.4688 132.588 28.6875C132.697 28.7923 132.943 28.8789 133.326 28.9473C133.632 29.002 133.889 29.0293 134.099 29.0293C134.481 29.0293 134.819 28.9837 135.11 28.8926C135.534 28.7604 135.746 28.5508 135.746 28.2637C135.746 27.6439 135.313 27.2246 134.447 27.0059L133.736 26.8486C133.13 26.7165 132.7 26.5615 132.444 26.3838C132.075 26.1286 131.891 25.7435 131.891 25.2285C131.891 24.276 132.34 23.597 133.237 23.1914C133.511 23.0684 133.948 22.9225 134.55 22.7539C135.151 22.5807 135.582 22.4349 135.842 22.3164C136.029 22.2344 136.231 22.1934 136.45 22.1934C136.646 22.1934 136.806 22.2572 136.929 22.3848C137.056 22.5124 137.12 22.6787 137.12 22.8838C137.12 23.016 137.147 23.2096 137.202 23.4648C137.261 23.7201 137.291 23.9137 137.291 24.0459C137.291 24.251 137.227 24.4173 137.1 24.5449C136.977 24.6725 136.817 24.7363 136.621 24.7363Z" fill="url(#paint1_linear_896_195)"/>
<defs>
<linearGradient id="paint0_linear_896_195" x1="0" y1="25" x2="150" y2="25" gradientUnits="userSpaceOnUse">
<stop stop-color="#FFA91F"/>
<stop offset="1" stop-color="#FF6464"/>
</linearGradient>
<linearGradient id="paint1_linear_896_195" x1="125.935" y1="20.2222" x2="63.8507" y2="57.8875" gradientUnits="userSpaceOnUse">
<stop stop-color="#EC221F"/>
<stop offset="1" stop-color="#FFB744"/>
</linearGradient>
</defs>
</svg>
