<svg width="150" height="50" viewBox="0 0 150 50" fill="none" xmlns="http://www.w3.org/2000/svg">
<g clip-path="url(#clip0_952_263)">
<path d="M20 0.5H149.5V30C149.5 40.7696 140.77 49.5 130 49.5H0.5V20L0.506836 19.4971C0.773602 8.95996 9.3986 0.500001 20 0.5Z" fill="#FF6464" fill-opacity="0.14" stroke="url(#paint0_linear_952_263)"/>
<path d="M25.3081 33.1886V31.3611C25.3081 30.3917 24.9038 29.4621 24.1842 28.7766C23.4646 28.0912 22.4885 27.7061 21.4709 27.7061H13.7964C12.7787 27.7061 11.8027 28.0912 11.0831 28.7766C10.3635 29.4621 9.95923 30.3917 9.95923 31.3611V33.1886M31.0639 33.1886V31.3611C31.0632 30.5513 30.7803 29.7646 30.2594 29.1245C29.7385 28.4845 29.0092 28.0274 28.186 27.8249M24.3488 16.86C25.1742 17.0613 25.9057 17.5185 26.4282 18.1596C26.9506 18.8007 27.2342 19.5892 27.2342 20.4008C27.2342 21.2123 26.9506 22.0008 26.4282 22.6419C25.9057 23.283 25.1742 23.7402 24.3488 23.9415M21.4709 20.3962C21.4709 22.4148 19.7529 24.0512 17.6336 24.0512C15.5144 24.0512 13.7964 22.4148 13.7964 20.3962C13.7964 18.3776 15.5144 16.7412 17.6336 16.7412C19.7529 16.7412 21.4709 18.3776 21.4709 20.3962Z" stroke="#EC221F" stroke-linecap="round" stroke-linejoin="round"/>
<path d="M31.5437 22.6806H28.6658V21.7669H31.5437V19.0256H32.503V21.7669H35.3809V22.6806H32.503V25.4218H31.5437V22.6806Z" fill="#FF5F57"/>
<path d="M53.28 30.098C53.1867 30.098 53.098 30.07 53.014 30.014C52.9393 29.958 52.888 29.8833 52.86 29.79L51.712 26.458L48.226 27.228L47.204 29.804C47.176 29.888 47.1247 29.9533 47.05 30C46.9753 30.056 46.8913 30.084 46.798 30.084C46.6767 30.084 46.574 30.042 46.49 29.958C46.4153 29.874 46.378 29.7667 46.378 29.636C46.378 29.58 46.3967 29.5007 46.434 29.398L47.204 27.424C47.12 27.452 47.036 27.466 46.952 27.466C46.84 27.4567 46.7467 27.4147 46.672 27.34C46.5973 27.256 46.56 27.1533 46.56 27.032C46.56 26.9293 46.5927 26.836 46.658 26.752C46.7233 26.668 46.8027 26.6167 46.896 26.598L47.596 26.444L49.836 20.718C49.8733 20.634 49.934 20.5687 50.018 20.522C50.102 20.466 50.186 20.438 50.27 20.438C50.3633 20.438 50.4473 20.466 50.522 20.522C50.5967 20.5687 50.6527 20.6387 50.69 20.732L53.644 29.328C53.7 29.496 53.728 29.608 53.728 29.664C53.728 29.776 53.686 29.8787 53.602 29.972C53.518 30.056 53.4107 30.098 53.28 30.098ZM51.404 25.618L50.214 22.132L48.604 26.22L51.404 25.618ZM57.2148 30.084C56.7574 30.084 56.3421 29.958 55.9688 29.706C55.6048 29.454 55.3154 29.09 55.1008 28.614C54.8861 28.1287 54.7788 27.564 54.7788 26.92C54.7788 25.7253 55.0448 24.792 55.5768 24.12C56.1088 23.448 56.8414 23.112 57.7748 23.112C58.4001 23.112 59.0208 23.2753 59.6368 23.602L59.7068 20.816C59.7068 20.6947 59.7534 20.592 59.8468 20.508C59.9401 20.4147 60.0474 20.368 60.1688 20.368C60.2808 20.368 60.3788 20.4147 60.4628 20.508C60.5561 20.6013 60.6028 20.7087 60.6028 20.83L60.3928 29.664C60.3928 29.7853 60.3461 29.888 60.2528 29.972C60.1688 30.0467 60.0661 30.084 59.9448 30.084C59.8141 30.084 59.7068 30.0373 59.6228 29.944C59.5388 29.8413 59.5014 29.7247 59.5108 29.594L59.5248 29.02C58.7968 29.7293 58.0268 30.084 57.2148 30.084ZM57.2288 29.258C57.6581 29.258 58.0501 29.1693 58.4048 28.992C58.7594 28.8147 59.0348 28.6047 59.2308 28.362C59.4361 28.11 59.5434 27.8907 59.5528 27.704L59.6228 24.47C59.4174 24.3487 59.1468 24.232 58.8108 24.12C58.4841 24.008 58.1528 23.952 57.8168 23.952C57.0981 23.952 56.5568 24.2087 56.1928 24.722C55.8288 25.2353 55.6468 25.954 55.6468 26.878C55.6468 27.6247 55.7868 28.208 56.0668 28.628C56.3561 29.048 56.7434 29.258 57.2288 29.258ZM64.6386 30.084C64.1813 30.084 63.7659 29.958 63.3926 29.706C63.0286 29.454 62.7393 29.09 62.5246 28.614C62.3099 28.1287 62.2026 27.564 62.2026 26.92C62.2026 25.7253 62.4686 24.792 63.0006 24.12C63.5326 23.448 64.2653 23.112 65.1986 23.112C65.8239 23.112 66.4446 23.2753 67.0606 23.602L67.1306 20.816C67.1306 20.6947 67.1773 20.592 67.2706 20.508C67.3639 20.4147 67.4713 20.368 67.5926 20.368C67.7046 20.368 67.8026 20.4147 67.8866 20.508C67.9799 20.6013 68.0266 20.7087 68.0266 20.83L67.8166 29.664C67.8166 29.7853 67.7699 29.888 67.6766 29.972C67.5926 30.0467 67.4899 30.084 67.3686 30.084C67.2379 30.084 67.1306 30.0373 67.0466 29.944C66.9626 29.8413 66.9253 29.7247 66.9346 29.594L66.9486 29.02C66.2206 29.7293 65.4506 30.084 64.6386 30.084ZM64.6526 29.258C65.0819 29.258 65.4739 29.1693 65.8286 28.992C66.1833 28.8147 66.4586 28.6047 66.6546 28.362C66.8599 28.11 66.9673 27.8907 66.9766 27.704L67.0466 24.47C66.8413 24.3487 66.5706 24.232 66.2346 24.12C65.9079 24.008 65.5766 23.952 65.2406 23.952C64.5219 23.952 63.9806 24.2087 63.6166 24.722C63.2526 25.2353 63.0706 25.954 63.0706 26.878C63.0706 27.6247 63.2106 28.208 63.4906 28.628C63.7799 29.048 64.1673 29.258 64.6526 29.258ZM79.3562 30.196C79.2162 30.196 79.1089 30.1493 79.0342 30.056C78.9595 29.972 78.9222 29.8647 78.9222 29.734V29.342C78.6702 29.566 78.3669 29.748 78.0122 29.888C77.6575 30.0187 77.3029 30.084 76.9482 30.084C76.4442 30.084 75.9915 29.958 75.5902 29.706C75.1889 29.454 74.8715 29.0993 74.6382 28.642C74.4142 28.1753 74.3022 27.648 74.3022 27.06C74.3022 26.4253 74.4329 25.8047 74.6942 25.198C74.9649 24.582 75.3522 24.078 75.8562 23.686C76.3695 23.294 76.9715 23.098 77.6622 23.098C78.0915 23.098 78.4695 23.154 78.7962 23.266C79.1229 23.378 79.4542 23.5133 79.7902 23.672V29.734C79.7902 29.8647 79.7482 29.972 79.6642 30.056C79.5802 30.1493 79.4775 30.196 79.3562 30.196ZM76.9482 29.258C77.3122 29.258 77.6762 29.174 78.0402 29.006C78.4042 28.8287 78.6842 28.642 78.8802 28.446L78.9362 24.204C78.7869 24.1387 78.5909 24.078 78.3482 24.022C78.1149 23.9567 77.8955 23.924 77.6902 23.924C77.2329 23.924 76.8129 24.0593 76.4302 24.33C76.0475 24.6007 75.7442 24.974 75.5202 25.45C75.3055 25.9167 75.1982 26.444 75.1982 27.032C75.1982 27.7133 75.3615 28.2547 75.6882 28.656C76.0149 29.0573 76.4349 29.258 76.9482 29.258ZM83.761 30.112C83.229 30.112 82.767 30.0047 82.375 29.79C81.9923 29.566 81.6983 29.3093 81.493 29.02C81.297 28.7213 81.199 28.4693 81.199 28.264C81.199 28.1427 81.2363 28.0447 81.311 27.97C81.395 27.886 81.4976 27.844 81.619 27.844C81.8243 27.844 81.955 27.942 82.011 28.138C82.1416 28.5113 82.361 28.8007 82.669 29.006C82.977 29.2113 83.355 29.314 83.803 29.314C84.251 29.314 84.6196 29.1927 84.909 28.95C85.1983 28.7073 85.343 28.418 85.343 28.082C85.343 27.886 85.2963 27.7227 85.203 27.592C85.119 27.452 84.9603 27.3213 84.727 27.2C84.503 27.0787 84.1716 26.9527 83.733 26.822C82.977 26.5887 82.431 26.318 82.095 26.01C81.759 25.702 81.591 25.296 81.591 24.792C81.591 24.288 81.7963 23.882 82.207 23.574C82.627 23.2567 83.2243 23.098 83.999 23.098C84.699 23.098 85.2356 23.2427 85.609 23.532C85.9916 23.812 86.183 24.1993 86.183 24.694C86.183 24.918 86.1456 25.0907 86.071 25.212C85.9963 25.324 85.889 25.38 85.749 25.38C85.6276 25.38 85.525 25.3427 85.441 25.268C85.357 25.184 85.315 25.0907 85.315 24.988C85.315 24.9413 85.3196 24.89 85.329 24.834C85.3476 24.778 85.357 24.7267 85.357 24.68C85.357 24.428 85.245 24.232 85.021 24.092C84.797 23.9427 84.4563 23.868 83.999 23.868C83.495 23.868 83.103 23.952 82.823 24.12C82.5523 24.2787 82.417 24.5073 82.417 24.806C82.417 25.0953 82.5336 25.324 82.767 25.492C83.0096 25.66 83.425 25.842 84.013 26.038C84.573 26.2247 85.0023 26.402 85.301 26.57C85.609 26.738 85.8283 26.9387 85.959 27.172C86.099 27.396 86.169 27.6853 86.169 28.04C86.169 28.3853 86.0663 28.7167 85.861 29.034C85.665 29.3513 85.385 29.6127 85.021 29.818C84.657 30.014 84.237 30.112 83.761 30.112ZM95.073 30.084C94.5316 30.084 94.023 29.9533 93.547 29.692C93.0803 29.4213 92.707 29.0527 92.427 28.586C92.1563 28.1193 92.021 27.606 92.021 27.046C92.021 26.4113 92.1656 25.7907 92.455 25.184C92.7536 24.568 93.1456 24.0687 93.631 23.686C94.1163 23.294 94.6203 23.098 95.143 23.098C95.6283 23.098 96.025 23.1773 96.333 23.336C96.6503 23.4947 96.9536 23.742 97.243 24.078C97.3176 24.1527 97.355 24.2507 97.355 24.372C97.355 24.4933 97.313 24.596 97.229 24.68C97.1543 24.764 97.0563 24.806 96.935 24.806C96.8043 24.806 96.697 24.7547 96.613 24.652C96.4076 24.4093 96.1976 24.2273 95.983 24.106C95.7683 23.9753 95.4976 23.91 95.171 23.91C94.7976 23.91 94.4336 24.0593 94.079 24.358C93.7243 24.6567 93.435 25.0487 93.211 25.534C92.987 26.01 92.875 26.5047 92.875 27.018C92.875 27.4847 92.9823 27.8907 93.197 28.236C93.421 28.572 93.701 28.8287 94.037 29.006C94.3823 29.1833 94.7276 29.272 95.073 29.272C95.8756 29.272 96.501 28.95 96.949 28.306C97.0703 28.138 97.201 28.054 97.341 28.054C97.4623 28.054 97.565 28.096 97.649 28.18C97.733 28.264 97.775 28.362 97.775 28.474C97.775 28.5673 97.7283 28.6747 97.635 28.796C97.3923 29.1507 97.0423 29.454 96.585 29.706C96.1276 29.958 95.6236 30.084 95.073 30.084ZM101.617 30.084C101.085 30.084 100.6 29.944 100.161 29.664C99.7315 29.3747 99.3909 28.9873 99.1389 28.502C98.8962 28.0073 98.7749 27.4613 98.7749 26.864C98.7749 26.2293 98.9149 25.6227 99.1949 25.044C99.4842 24.4653 99.8809 23.9987 100.385 23.644C100.889 23.28 101.444 23.098 102.051 23.098C102.574 23.098 103.05 23.2427 103.479 23.532C103.918 23.812 104.258 24.1993 104.501 24.694C104.753 25.1793 104.879 25.716 104.879 26.304C104.879 26.976 104.73 27.6013 104.431 28.18C104.132 28.7587 103.731 29.2207 103.227 29.566C102.732 29.9113 102.196 30.084 101.617 30.084ZM101.673 29.286C102.074 29.286 102.452 29.1507 102.807 28.88C103.162 28.6093 103.446 28.25 103.661 27.802C103.876 27.354 103.983 26.878 103.983 26.374C103.983 25.9353 103.894 25.5293 103.717 25.156C103.54 24.7733 103.297 24.47 102.989 24.246C102.69 24.0127 102.354 23.896 101.981 23.896C101.57 23.896 101.188 24.036 100.833 24.316C100.488 24.5867 100.208 24.9507 99.9929 25.408C99.7875 25.856 99.6849 26.332 99.6849 26.836C99.6849 27.3213 99.7735 27.7507 99.9509 28.124C100.138 28.488 100.385 28.7727 100.693 28.978C101.001 29.1833 101.328 29.286 101.673 29.286ZM107.081 30.084C106.96 30.084 106.852 30.042 106.759 29.958C106.675 29.874 106.633 29.7807 106.633 29.678V23.504C106.633 23.3827 106.675 23.2847 106.759 23.21C106.852 23.126 106.96 23.084 107.081 23.084C107.202 23.084 107.305 23.126 107.389 23.21C107.473 23.2847 107.515 23.3827 107.515 23.504V25.716C107.786 24.876 108.159 24.232 108.635 23.784C109.12 23.3267 109.666 23.098 110.273 23.098C110.786 23.098 111.192 23.2287 111.491 23.49C111.79 23.7513 112.004 24.1667 112.135 24.736C112.266 25.296 112.331 26.052 112.331 27.004C112.331 27.9373 112.326 28.5487 112.317 28.838V29.636C112.317 29.7573 112.275 29.8647 112.191 29.958C112.116 30.042 112.018 30.084 111.897 30.084C111.785 30.084 111.687 30.042 111.603 29.958C111.519 29.8647 111.477 29.762 111.477 29.65V28.866C111.468 28.5767 111.463 27.9747 111.463 27.06C111.463 26.192 111.416 25.534 111.323 25.086C111.239 24.638 111.104 24.3347 110.917 24.176C110.74 24.008 110.483 23.924 110.147 23.924C109.83 23.924 109.517 24.0407 109.209 24.274C108.901 24.5073 108.63 24.8387 108.397 25.268C108.089 25.828 107.865 26.3553 107.725 26.85C107.594 27.3447 107.524 27.8533 107.515 28.376L107.501 29.622C107.501 29.7527 107.459 29.8647 107.375 29.958C107.3 30.042 107.202 30.084 107.081 30.084ZM115.169 30.098C115.048 30.098 114.941 30.056 114.847 29.972C114.763 29.888 114.721 29.79 114.721 29.678V23.966H113.167C113.046 23.966 112.943 23.924 112.859 23.84C112.775 23.7467 112.733 23.6393 112.733 23.518C112.733 23.3873 112.78 23.2847 112.873 23.21C112.967 23.126 113.074 23.084 113.195 23.084H114.721V21.166C114.721 21.0447 114.763 20.942 114.847 20.858C114.941 20.7647 115.048 20.718 115.169 20.718C115.3 20.718 115.403 20.7647 115.477 20.858C115.561 20.942 115.603 21.0447 115.603 21.166V23.084H117.171C117.302 23.084 117.409 23.126 117.493 23.21C117.577 23.294 117.619 23.3967 117.619 23.518C117.619 23.6393 117.573 23.7467 117.479 23.84C117.395 23.924 117.293 23.966 117.171 23.966H115.603V29.678C115.603 29.79 115.557 29.888 115.463 29.972C115.379 30.056 115.281 30.098 115.169 30.098ZM122.573 30.196C122.433 30.196 122.326 30.1493 122.251 30.056C122.176 29.972 122.139 29.8647 122.139 29.734V29.342C121.887 29.566 121.584 29.748 121.229 29.888C120.874 30.0187 120.52 30.084 120.165 30.084C119.661 30.084 119.208 29.958 118.807 29.706C118.406 29.454 118.088 29.0993 117.855 28.642C117.631 28.1753 117.519 27.648 117.519 27.06C117.519 26.4253 117.65 25.8047 117.911 25.198C118.182 24.582 118.569 24.078 119.073 23.686C119.586 23.294 120.188 23.098 120.879 23.098C121.308 23.098 121.686 23.154 122.013 23.266C122.34 23.378 122.671 23.5133 123.007 23.672V29.734C123.007 29.8647 122.965 29.972 122.881 30.056C122.797 30.1493 122.694 30.196 122.573 30.196ZM120.165 29.258C120.529 29.258 120.893 29.174 121.257 29.006C121.621 28.8287 121.901 28.642 122.097 28.446L122.153 24.204C122.004 24.1387 121.808 24.078 121.565 24.022C121.332 23.9567 121.112 23.924 120.907 23.924C120.45 23.924 120.03 24.0593 119.647 24.33C119.264 24.6007 118.961 24.974 118.737 25.45C118.522 25.9167 118.415 26.444 118.415 27.032C118.415 27.7133 118.578 28.2547 118.905 28.656C119.232 29.0573 119.652 29.258 120.165 29.258ZM127.79 30.084C127.248 30.084 126.74 29.9533 126.264 29.692C125.797 29.4213 125.424 29.0527 125.144 28.586C124.873 28.1193 124.738 27.606 124.738 27.046C124.738 26.4113 124.882 25.7907 125.172 25.184C125.47 24.568 125.862 24.0687 126.348 23.686C126.833 23.294 127.337 23.098 127.86 23.098C128.345 23.098 128.742 23.1773 129.05 23.336C129.367 23.4947 129.67 23.742 129.96 24.078C130.034 24.1527 130.072 24.2507 130.072 24.372C130.072 24.4933 130.03 24.596 129.946 24.68C129.871 24.764 129.773 24.806 129.652 24.806C129.521 24.806 129.414 24.7547 129.33 24.652C129.124 24.4093 128.914 24.2273 128.7 24.106C128.485 23.9753 128.214 23.91 127.888 23.91C127.514 23.91 127.15 24.0593 126.796 24.358C126.441 24.6567 126.152 25.0487 125.928 25.534C125.704 26.01 125.592 26.5047 125.592 27.018C125.592 27.4847 125.699 27.8907 125.914 28.236C126.138 28.572 126.418 28.8287 126.754 29.006C127.099 29.1833 127.444 29.272 127.79 29.272C128.592 29.272 129.218 28.95 129.666 28.306C129.787 28.138 129.918 28.054 130.058 28.054C130.179 28.054 130.282 28.096 130.366 28.18C130.45 28.264 130.492 28.362 130.492 28.474C130.492 28.5673 130.445 28.6747 130.352 28.796C130.109 29.1507 129.759 29.454 129.302 29.706C128.844 29.958 128.34 30.084 127.79 30.084ZM132.738 30.098C132.616 30.098 132.509 30.056 132.416 29.972C132.332 29.888 132.29 29.79 132.29 29.678V23.966H130.736C130.614 23.966 130.512 23.924 130.428 23.84C130.344 23.7467 130.302 23.6393 130.302 23.518C130.302 23.3873 130.348 23.2847 130.442 23.21C130.535 23.126 130.642 23.084 130.764 23.084H132.29V21.166C132.29 21.0447 132.332 20.942 132.416 20.858C132.509 20.7647 132.616 20.718 132.738 20.718C132.868 20.718 132.971 20.7647 133.046 20.858C133.13 20.942 133.172 21.0447 133.172 21.166V23.084H134.74C134.87 23.084 134.978 23.126 135.062 23.21C135.146 23.294 135.188 23.3967 135.188 23.518C135.188 23.6393 135.141 23.7467 135.048 23.84C134.964 23.924 134.861 23.966 134.74 23.966H133.172V29.678C133.172 29.79 133.125 29.888 133.032 29.972C132.948 30.056 132.85 30.098 132.738 30.098Z" fill="url(#paint1_linear_952_263)"/>
</g>
<defs>
<linearGradient id="paint0_linear_952_263" x1="-8.90694e-09" y1="25" x2="150" y2="25" gradientUnits="userSpaceOnUse">
<stop stop-color="#FFA91F"/>
<stop offset="1" stop-color="#FF6464"/>
</linearGradient>
<linearGradient id="paint1_linear_952_263" x1="46" y1="25" x2="135" y2="25" gradientUnits="userSpaceOnUse">
<stop stop-color="#FFA91F"/>
<stop offset="1" stop-color="#EC221F"/>
</linearGradient>
<clipPath id="clip0_952_263">
<rect width="150" height="50" fill="white"/>
</clipPath>
</defs>
</svg>
