<svg width="150" height="50" viewBox="0 0 150 50" fill="none" xmlns="http://www.w3.org/2000/svg">
<path d="M20 0.5H149.5V30C149.5 40.7696 140.77 49.5 130 49.5H0.5V20L0.506836 19.4971C0.773602 8.95996 9.3986 0.500001 20 0.5Z" fill="url(#paint0_linear_923_208)" fill-opacity="0.3" stroke="url(#paint1_linear_923_208)"/>
<path d="M54.5439 17.3887C53.4411 17.3887 52.8236 18.1543 52.6914 19.6855L52.6709 20.1094C53.4456 20.0547 53.9469 20.0273 54.1748 20.0273C54.8994 20.0273 55.2617 20.2552 55.2617 20.7109C55.2617 21.0436 55.084 21.2419 54.7285 21.3057C54.5736 21.333 54.3913 21.3444 54.1816 21.3398C53.9766 21.3307 53.4525 21.3604 52.6094 21.4287L52.5547 22.9873C52.5547 23.2699 52.5638 23.6937 52.582 24.2588C52.6003 24.8239 52.6094 25.2454 52.6094 25.5234C52.6094 26.3893 52.5592 27.0638 52.459 27.5469C52.3815 27.9115 52.1696 28.0938 51.8232 28.0938C51.6364 28.0938 51.4769 28.0322 51.3447 27.9092C51.2126 27.7907 51.1465 27.6403 51.1465 27.458C51.1465 27.4215 51.151 27.376 51.1602 27.3213C51.2559 26.7288 51.3037 26.084 51.3037 25.3867L51.2832 23.5205V21.5381C50.7135 21.5837 50.3535 21.6064 50.2031 21.6064C49.7428 21.6064 49.5127 21.3854 49.5127 20.9434C49.5127 20.4922 49.9115 20.2552 50.709 20.2324L51.3652 20.2119C51.3789 19.9567 51.4131 19.6104 51.4678 19.1729C51.5863 18.1611 51.8415 17.416 52.2334 16.9375C52.7074 16.3587 53.4479 16.0693 54.4551 16.0693C55.1068 16.0693 55.4326 16.2904 55.4326 16.7324C55.4326 17.1699 55.1364 17.3887 54.5439 17.3887ZM62.3916 21.9482C62.3597 22.5179 62.1318 22.8027 61.708 22.8027C61.3161 22.8027 61.1201 22.5771 61.1201 22.126C61.1201 22.0394 61.1133 21.8799 61.0996 21.6475L61.0791 21.0732C60.359 21.1598 59.7826 21.3626 59.3496 21.6816C58.944 21.9779 58.6068 22.4245 58.3379 23.0215L58.3516 26.7676C58.3516 27.2279 58.126 27.458 57.6748 27.458C57.2738 27.458 57.0732 27.2279 57.0732 26.7676V21.9688C57.0732 21.8184 57.0778 21.5928 57.0869 21.292C57.1006 20.9912 57.1074 20.7656 57.1074 20.6152C57.1074 20.1549 57.3079 19.9248 57.709 19.9248C58.1556 19.9248 58.3812 20.3031 58.3857 21.0596C59.2607 20.2165 60.2314 19.7949 61.2979 19.7949C61.667 19.7949 61.9427 19.9339 62.125 20.2119C62.3073 20.4899 62.3984 20.9092 62.3984 21.4697C62.3984 21.7067 62.3962 21.8662 62.3916 21.9482ZM65.1055 18.3457C64.8867 18.3457 64.6976 18.2682 64.5381 18.1133C64.3786 17.9583 64.2988 17.7715 64.2988 17.5527C64.2988 17.334 64.3786 17.1471 64.5381 16.9922C64.6976 16.8372 64.8867 16.7598 65.1055 16.7598C65.3242 16.7598 65.5111 16.8372 65.666 16.9922C65.8255 17.1471 65.9053 17.334 65.9053 17.5527C65.9053 17.7715 65.8255 17.9583 65.666 18.1133C65.5111 18.2682 65.3242 18.3457 65.1055 18.3457ZM65.4131 23.8965C65.4131 24.1699 65.4199 24.5801 65.4336 25.127C65.4518 25.6693 65.4609 26.0771 65.4609 26.3506C65.4609 26.5511 65.3994 26.7152 65.2764 26.8428C65.1533 26.9704 64.9915 27.0342 64.791 27.0342C64.5951 27.0342 64.4333 26.9704 64.3057 26.8428C64.1826 26.7152 64.1211 26.5511 64.1211 26.3506C64.1211 26.0771 64.112 25.6693 64.0938 25.127C64.0801 24.5801 64.0732 24.1699 64.0732 23.8965C64.0732 23.4681 64.096 22.9349 64.1416 22.2969C64.1872 21.6543 64.21 21.1188 64.21 20.6904C64.21 20.4854 64.2715 20.319 64.3945 20.1914C64.5221 20.0638 64.6839 20 64.8799 20C65.0758 20 65.2354 20.0638 65.3584 20.1914C65.486 20.319 65.5498 20.4854 65.5498 20.6904C65.5498 21.1188 65.527 21.6543 65.4814 22.2969C65.4359 22.9349 65.4131 23.4681 65.4131 23.8965ZM70.916 27.3145C69.8861 27.3145 69.0521 27.057 68.4141 26.542C67.7168 25.9723 67.3682 25.1748 67.3682 24.1494C67.3682 22.9645 67.6553 21.971 68.2295 21.1689C68.8538 20.2939 69.6878 19.8564 70.7314 19.8564C71.488 19.8564 72.1055 19.984 72.584 20.2393C73.1719 20.5537 73.4658 21.0368 73.4658 21.6885C73.4658 22.1442 73.2083 22.5589 72.6934 22.9326C72.4655 23.0967 71.9824 23.3519 71.2441 23.6982L68.6328 24.9355C68.888 25.3138 69.2048 25.5986 69.583 25.79C69.9658 25.9814 70.4102 26.0771 70.916 26.0771C71.2305 26.0771 71.5996 26.0179 72.0234 25.8994C72.5612 25.749 72.9076 25.5531 73.0625 25.3115C73.2174 25.0654 73.3838 24.9424 73.5615 24.9424C73.721 24.9424 73.8623 25.0039 73.9854 25.127C74.113 25.2454 74.1768 25.3844 74.1768 25.5439C74.1768 26.0498 73.7689 26.485 72.9531 26.8496C72.2559 27.1595 71.5768 27.3145 70.916 27.3145ZM70.7314 21.0869C70.1755 21.0869 69.7129 21.3034 69.3438 21.7363C68.9746 22.1647 68.6989 22.8118 68.5166 23.6777L70.6152 22.6797C71.4401 22.2786 72.028 21.93 72.3789 21.6338C71.987 21.2692 71.4378 21.0869 70.7314 21.0869ZM80.6367 27.4854C80.2448 27.4854 80.0238 27.2712 79.9736 26.8428L79.7822 25.3457C79.7184 24.8125 79.6865 24.3135 79.6865 23.8486C79.6865 23.721 79.6934 23.5046 79.707 23.1992C79.7253 22.8939 79.7344 22.6774 79.7344 22.5498C79.7344 21.5654 79.5521 21.0732 79.1875 21.0732C78.6771 21.0732 78.1895 21.3763 77.7246 21.9824C77.3053 22.5339 76.9772 23.2311 76.7402 24.0742C76.7311 24.252 76.7106 24.4753 76.6787 24.7441C76.6514 24.972 76.6377 25.193 76.6377 25.4072C76.6377 25.5439 76.6514 25.749 76.6787 26.0225C76.7061 26.2959 76.7197 26.501 76.7197 26.6377C76.7197 26.8428 76.6559 27.0091 76.5283 27.1367C76.4053 27.2643 76.2458 27.3281 76.0498 27.3281C75.8493 27.3281 75.6875 27.2643 75.5645 27.1367C75.4414 27.0091 75.3799 26.8428 75.3799 26.6377C75.3799 26.501 75.3639 26.2959 75.332 26.0225C75.3047 25.749 75.291 25.5439 75.291 25.4072C75.291 24.9378 75.3229 24.2884 75.3867 23.459C75.4551 22.625 75.4893 21.9733 75.4893 21.5039C75.4893 21.3581 75.4801 21.1416 75.4619 20.8545C75.4482 20.5674 75.4414 20.3509 75.4414 20.2051C75.4414 20.0091 75.5052 19.8496 75.6328 19.7266C75.765 19.599 75.9268 19.5352 76.1182 19.5352C76.5374 19.5352 76.7676 19.8314 76.8086 20.4238L76.8291 21.2236C77.5947 20.2028 78.3809 19.6924 79.1875 19.6924C79.9167 19.6924 80.4248 20.0137 80.7119 20.6562C80.9079 21.0846 81.015 21.7181 81.0332 22.5566V23.2471L81.0264 23.8828C81.0264 24.2611 81.0742 24.751 81.1699 25.3525C81.2702 25.9495 81.3203 26.4349 81.3203 26.8086C81.3203 27.0091 81.2542 27.1709 81.1221 27.2939C80.9945 27.4215 80.8327 27.4854 80.6367 27.4854ZM89.0176 20.9639C88.9629 21.6338 88.9355 22.3037 88.9355 22.9736C88.9355 24.4912 89.0062 25.6374 89.1475 26.4121C89.1566 26.4759 89.1611 26.5283 89.1611 26.5693C89.1611 26.7516 89.0973 26.902 88.9697 27.0205C88.8421 27.139 88.694 27.1982 88.5254 27.1982C88.2428 27.1982 88.0355 26.9932 87.9033 26.583C87.5752 26.8245 87.2334 27.0068 86.8779 27.1299C86.527 27.2529 86.1602 27.3145 85.7773 27.3145C84.834 27.3145 84.0524 27 83.4326 26.3711C82.7946 25.7285 82.4756 24.9036 82.4756 23.8965C82.4756 22.6797 82.7969 21.7044 83.4395 20.9707C84.0866 20.237 84.9251 19.8701 85.9551 19.8701C86.4837 19.8701 86.8916 19.9521 87.1787 20.1162L87.8213 20.5879C87.8851 18.6693 87.9603 17.3773 88.0469 16.7119C88.1061 16.3063 88.3135 16.1035 88.6689 16.1035C89.0837 16.1035 89.291 16.3245 89.291 16.7666C89.291 17.4001 89.1999 18.7992 89.0176 20.9639ZM85.9824 21.1416C85.2168 21.1416 84.6426 21.3695 84.2598 21.8252C83.877 22.2764 83.6855 22.9577 83.6855 23.8691C83.6855 24.457 83.8929 24.9629 84.3076 25.3867C84.7269 25.8105 85.2168 26.0225 85.7773 26.0225C86.1602 26.0225 86.4837 25.9518 86.748 25.8105C86.903 25.7285 87.1559 25.5394 87.5068 25.2432C87.5752 25.1839 87.6413 25.1133 87.7051 25.0312L87.6846 23.8486L87.6914 23.0557L87.7051 22.249C87.5319 21.8799 87.3018 21.6042 87.0146 21.4219C86.7275 21.235 86.3835 21.1416 85.9824 21.1416ZM95.5664 21.7363C95.3158 21.7363 95.1403 21.652 95.04 21.4834C94.9717 21.3649 94.9124 21.1188 94.8623 20.7451C94.5205 20.8317 93.9941 20.9912 93.2832 21.2236C92.5495 21.5153 92.1803 21.8753 92.1758 22.3037C92.3125 22.3538 92.4469 22.3903 92.5791 22.4131C93.6273 22.5999 94.4066 22.8574 94.917 23.1855C95.6598 23.6641 96.0312 24.3568 96.0312 25.2637C96.0312 26.0065 95.71 26.5671 95.0674 26.9453C94.5342 27.2552 93.8597 27.4102 93.0439 27.4102C92.4469 27.4102 91.8773 27.3099 91.335 27.1094C90.6331 26.8542 90.2822 26.4987 90.2822 26.043C90.2822 25.8607 90.3529 25.7012 90.4941 25.5645C90.64 25.4277 90.804 25.3594 90.9863 25.3594C91.1276 25.3594 91.3099 25.4688 91.5332 25.6875C91.6426 25.7923 91.8887 25.8789 92.2715 25.9473C92.5768 26.002 92.8343 26.0293 93.0439 26.0293C93.4268 26.0293 93.764 25.9837 94.0557 25.8926C94.4795 25.7604 94.6914 25.5508 94.6914 25.2637C94.6914 24.6439 94.2585 24.2246 93.3926 24.0059L92.6816 23.8486C92.0755 23.7165 91.6449 23.5615 91.3896 23.3838C91.0205 23.1286 90.8359 22.7435 90.8359 22.2285C90.8359 21.276 91.2848 20.597 92.1826 20.1914C92.4561 20.0684 92.8936 19.9225 93.4951 19.7539C94.0967 19.5807 94.5273 19.4349 94.7871 19.3164C94.974 19.2344 95.1768 19.1934 95.3955 19.1934C95.5915 19.1934 95.751 19.2572 95.874 19.3848C96.0016 19.5124 96.0654 19.6787 96.0654 19.8838C96.0654 20.016 96.0928 20.2096 96.1475 20.4648C96.2067 20.7201 96.2363 20.9137 96.2363 21.0459C96.2363 21.251 96.1725 21.4173 96.0449 21.5449C95.9219 21.6725 95.7624 21.7363 95.5664 21.7363Z" fill="url(#paint2_linear_923_208)"/>
<defs>
<linearGradient id="paint0_linear_923_208" x1="9.5" y1="14" x2="135" y2="38.5" gradientUnits="userSpaceOnUse">
<stop offset="0.129808" stop-color="#B2FFFB"/>
<stop offset="0.894231" stop-color="#0CFF45" stop-opacity="0.98"/>
</linearGradient>
<linearGradient id="paint1_linear_923_208" x1="0" y1="25" x2="150" y2="25" gradientUnits="userSpaceOnUse">
<stop stop-color="#089904"/>
<stop offset="1" stop-color="#0EF7FF"/>
</linearGradient>
<linearGradient id="paint2_linear_923_208" x1="90.6241" y1="21.4843" x2="51.7627" y2="23.6558" gradientUnits="userSpaceOnUse">
<stop stop-color="#10E31A"/>
<stop offset="0.995715" stop-color="#089904"/>
</linearGradient>
</defs>
</svg>
