<svg width="64" height="53" viewBox="0 0 64 53" fill="none" xmlns="http://www.w3.org/2000/svg">
<g filter="url(#filter0_d_873_300)">
<ellipse cx="27.5" cy="24" rx="27.5" ry="20" fill="#D9D9D9" fill-opacity="0.02" shape-rendering="crispEdges"/>
<path d="M27.5 4.5C34.9997 4.5 41.7691 6.71198 46.6514 10.2627C51.5339 13.8137 54.5 18.6766 54.5 24C54.5 29.3234 51.5339 34.1863 46.6514 37.7373C41.7691 41.288 34.9997 43.5 27.5 43.5C20.0003 43.5 13.2309 41.288 8.34863 37.7373C3.46605 34.1863 0.5 29.3234 0.5 24C0.5 18.6766 3.46605 13.8137 8.34863 10.2627C13.2309 6.71198 20.0003 4.5 27.5 4.5Z" stroke="url(#paint0_linear_873_300)" shape-rendering="crispEdges"/>
</g>
<path d="M30 24C30 22.8954 29.1046 22 28 22C26.8954 22 26 22.8954 26 24C26 25.1046 26.8954 26 28 26C29.1046 26 30 25.1046 30 24Z" stroke="#EC221F" stroke-width="4" stroke-linecap="round" stroke-linejoin="round"/>
<path d="M16 24C16 22.8954 15.1046 22 14 22C12.8954 22 12 22.8954 12 24C12 25.1046 12.8954 26 14 26C15.1046 26 16 25.1046 16 24Z" stroke="#EC221F" stroke-width="4" stroke-linecap="round" stroke-linejoin="round"/>
<path d="M44 24C44 22.8954 43.1046 22 42 22C40.8954 22 40 22.8954 40 24C40 25.1046 40.8954 26 42 26C43.1046 26 44 25.1046 44 24Z" stroke="#EC221F" stroke-width="4" stroke-linecap="round" stroke-linejoin="round"/>
<defs>
<filter id="filter0_d_873_300" x="0" y="4" width="64" height="49" filterUnits="userSpaceOnUse" color-interpolation-filters="sRGB">
<feFlood flood-opacity="0" result="BackgroundImageFix"/>
<feColorMatrix in="SourceAlpha" type="matrix" values="0 0 0 0 0 0 0 0 0 0 0 0 0 0 0 0 0 0 127 0" result="hardAlpha"/>
<feOffset dx="5" dy="5"/>
<feGaussianBlur stdDeviation="2"/>
<feComposite in2="hardAlpha" operator="out"/>
<feColorMatrix type="matrix" values="0 0 0 0 0 0 0 0 0 0 0 0 0 0 0 0 0 0 0.25 0"/>
<feBlend mode="normal" in2="BackgroundImageFix" result="effect1_dropShadow_873_300"/>
<feBlend mode="normal" in="SourceGraphic" in2="effect1_dropShadow_873_300" result="shape"/>
</filter>
<linearGradient id="paint0_linear_873_300" x1="27.5" y1="4" x2="27.5" y2="44" gradientUnits="userSpaceOnUse">
<stop stop-color="#EC221F"/>
<stop offset="1" stop-color="#FFA91F"/>
</linearGradient>
</defs>
</svg>
