<svg width="120" height="120" viewBox="0 0 120 120" fill="none" xmlns="http://www.w3.org/2000/svg">
<path d="M100.333 86.25V80.4167C100.333 77.3225 99.1042 74.355 96.9163 72.1671C94.7283 69.9792 91.7609 68.75 88.6667 68.75H65.3334C62.2392 68.75 59.2717 69.9792 57.0838 72.1671C54.8958 74.355 53.6667 77.3225 53.6667 80.4167V86.25M88.6667 45.4167C88.6667 51.86 83.4433 57.0833 77 57.0833C70.5567 57.0833 65.3334 51.86 65.3334 45.4167C65.3334 38.9733 70.5567 33.75 77 33.75C83.4433 33.75 88.6667 38.9733 88.6667 45.4167Z" stroke="#EC221F" stroke-linecap="round" stroke-linejoin="round"/>
<path d="M65.3334 86.25V80.4167C65.3334 77.3225 64.1042 74.355 61.9163 72.1671C59.7283 69.9792 56.7609 68.75 53.6667 68.75H30.3334C27.2392 68.75 24.2717 69.9792 22.0838 72.1671C19.8958 74.355 18.6667 77.3225 18.6667 80.4167V86.25M53.6667 45.4167C53.6667 51.86 48.4433 57.0833 42 57.0833C35.5567 57.0833 30.3334 51.86 30.3334 45.4167C30.3334 38.9733 35.5567 33.75 42 33.75C48.4433 33.75 53.6667 38.9733 53.6667 45.4167Z" stroke="#EC221F" stroke-width="4" stroke-linecap="round" stroke-linejoin="round"/>
<circle cx="60" cy="60" r="59.5" fill="#D9D9D9" fill-opacity="0.03" stroke="url(#paint0_linear_904_194)"/>
<defs>
<linearGradient id="paint0_linear_904_194" x1="14.5" y1="21" x2="108" y2="94.5" gradientUnits="userSpaceOnUse">
<stop offset="0.0594187" stop-color="#FF6464"/>
<stop offset="1" stop-color="#993C3C"/>
</linearGradient>
</defs>
</svg>
