<svg width="80" height="84" viewBox="0 0 80 84" fill="none" xmlns="http://www.w3.org/2000/svg">
<path d="M0 29C0 15.1929 11.1929 4 25 4H55C68.8071 4 80 15.1929 80 29V84H0V29Z" fill="url(#paint0_linear_946_206)" fill-opacity="0.67"/>
<path d="M40.7071 14.2929C40.3166 13.9024 39.6834 13.9024 39.2929 14.2929L32.9289 20.6569C32.5384 21.0474 32.5384 21.6805 32.9289 22.0711C33.3195 22.4616 33.9526 22.4616 34.3431 22.0711L40 16.4142L45.6569 22.0711C46.0474 22.4616 46.6805 22.4616 47.0711 22.0711C47.4616 21.6805 47.4616 21.0474 47.0711 20.6569L40.7071 14.2929ZM40 30H41V15H40H39V30H40Z" fill="#EA4A3E"/>
<path opacity="0.75" d="M40.7071 19.2929C40.3166 18.9024 39.6834 18.9024 39.2929 19.2929L32.9289 25.6569C32.5384 26.0474 32.5384 26.6805 32.9289 27.0711C33.3195 27.4616 33.9526 27.4616 34.3431 27.0711L40 21.4142L45.6569 27.0711C46.0474 27.4616 46.6805 27.4616 47.0711 27.0711C47.4616 26.6805 47.4616 26.0474 47.0711 25.6569L40.7071 19.2929ZM40 32H41V20H40H39V32H40Z" fill="#EC221F" fill-opacity="0.78"/>
<path opacity="0.5" d="M40.7071 24.2929C40.3166 23.9024 39.6834 23.9024 39.2929 24.2929L32.9289 30.6569C32.5384 31.0474 32.5384 31.6805 32.9289 32.0711C33.3195 32.4616 33.9526 32.4616 34.3431 32.0711L40 26.4142L45.6569 32.0711C46.0474 32.4616 46.6805 32.4616 47.0711 32.0711C47.4616 31.6805 47.4616 31.0474 47.0711 30.6569L40.7071 24.2929ZM40 32H41V25H40H39V32H40Z" fill="#EC221F" fill-opacity="0.7"/>
<path opacity="0.25" d="M40.7071 29.2929C40.3166 28.9024 39.6834 28.9024 39.2929 29.2929L32.9289 35.6569C32.5384 36.0474 32.5384 36.6805 32.9289 37.0711C33.3195 37.4616 33.9526 37.4616 34.3431 37.0711L40 31.4142L45.6569 37.0711C46.0474 37.4616 46.6805 37.4616 47.0711 37.0711C47.4616 36.6805 47.4616 36.0474 47.0711 35.6569L40.7071 29.2929ZM40 32H41V30H40H39V32H40Z" fill="#FF6464"/>
<rect x="25" y="38" width="30" height="24" rx="5" fill="black" fill-opacity="0.55"/>
<rect x="25.5" y="38.5" width="29" height="23" rx="4.5" stroke="#EC221F" stroke-opacity="0.06"/>
<path d="M33.46 12.964C32.852 12.964 32.376 12.768 32.032 12.376C31.688 11.976 31.448 11.436 31.312 10.756L31.696 10.648C31.848 11.032 32.02 11.304 32.212 11.464C32.412 11.624 32.68 11.704 33.016 11.704C33.4 11.704 33.724 11.596 33.988 11.38C34.26 11.164 34.396 10.9 34.396 10.588C34.396 10.412 34.332 10.324 34.204 10.324C34.1 10.324 33.948 10.348 33.748 10.396C33.556 10.444 33.364 10.496 33.172 10.552C32.98 10.6 32.836 10.624 32.74 10.624C32.596 10.624 32.448 10.556 32.296 10.42C32.152 10.284 32.016 10.112 31.888 9.904C31.76 9.688 31.656 9.464 31.576 9.232C31.496 9 31.456 8.784 31.456 8.584C31.456 8.112 31.604 7.716 31.9 7.396C32.204 7.076 32.636 6.916 33.196 6.916C33.676 6.916 34.068 7.044 34.372 7.3C34.676 7.556 34.908 7.948 35.068 8.476L34.648 8.62C34.432 8.276 34.104 8.104 33.664 8.104C33.28 8.104 32.956 8.204 32.692 8.404C32.428 8.604 32.296 8.856 32.296 9.16C32.296 9.32 32.372 9.4 32.524 9.4C32.644 9.4 32.8 9.376 32.992 9.328C33.184 9.272 33.376 9.22 33.568 9.172C33.76 9.124 33.916 9.1 34.036 9.1C34.22 9.1 34.4 9.204 34.576 9.412C34.752 9.62 34.896 9.884 35.008 10.204C35.12 10.524 35.176 10.852 35.176 11.188C35.176 11.724 35.028 12.156 34.732 12.484C34.436 12.804 34.012 12.964 33.46 12.964ZM38.1032 12.904C37.9832 12.904 37.8192 12.86 37.6112 12.772C37.4032 12.676 37.1912 12.556 36.9752 12.412C36.7592 12.26 36.5752 12.104 36.4232 11.944C36.2712 11.776 36.1952 11.616 36.1952 11.464C36.1952 11.376 36.1992 11.284 36.2072 11.188C36.2152 11.092 36.2272 10.968 36.2432 10.816C36.2592 10.656 36.2712 10.444 36.2792 10.18C36.2872 9.916 36.2912 9.572 36.2912 9.148C36.2912 8.988 36.2912 8.82 36.2912 8.644C36.2912 8.468 36.2872 8.284 36.2792 8.092H36.0632L35.4512 7.288L35.5352 7.096C35.9592 7.048 36.2272 6.92 36.3392 6.712C36.4512 6.504 36.5072 6.188 36.5072 5.764L36.7112 5.692L37.4432 6.244C37.4432 6.388 37.4432 6.528 37.4432 6.664C37.4432 6.8 37.4432 6.936 37.4432 7.072H38.4632L39.0632 7.912L38.9792 8.092H37.4552C37.4552 8.38 37.4552 8.656 37.4552 8.92C37.4552 9.184 37.4552 9.436 37.4552 9.676C37.4552 10.14 37.4472 10.496 37.4312 10.744C37.4232 10.992 37.4112 11.176 37.3952 11.296C37.3792 11.416 37.3712 11.528 37.3712 11.632C37.3712 11.792 37.4552 11.872 37.6232 11.872C37.7672 11.872 37.9232 11.836 38.0912 11.764C38.2592 11.684 38.4152 11.588 38.5592 11.476H38.7272L39.2912 12.412C39.1792 12.548 39.0032 12.664 38.7632 12.76C38.5232 12.856 38.3032 12.904 38.1032 12.904ZM42.082 12.94C41.89 12.94 41.658 12.892 41.386 12.796C41.114 12.7 40.85 12.572 40.594 12.412C40.338 12.252 40.122 12.068 39.946 11.86C39.778 11.652 39.694 11.44 39.694 11.224C39.694 11.128 39.706 10.848 39.73 10.384C39.762 9.92 39.778 9.34 39.778 8.644C39.778 8.084 39.942 7.672 40.27 7.408C40.598 7.144 41.09 7.012 41.746 7.012C41.938 7.012 42.15 7.072 42.382 7.192C42.622 7.312 42.85 7.468 43.066 7.66C43.282 7.852 43.458 8.056 43.594 8.272C43.738 8.48 43.81 8.676 43.81 8.86C43.81 9.164 43.802 9.492 43.786 9.844C43.778 10.196 43.774 10.648 43.774 11.2C43.774 11.712 43.634 12.132 43.354 12.46C43.074 12.78 42.65 12.94 42.082 12.94ZM41.314 11.92C41.754 11.92 42.074 11.828 42.274 11.644C42.482 11.46 42.586 11.188 42.586 10.828C42.586 10.572 42.59 10.284 42.598 9.964C42.606 9.636 42.614 9.336 42.622 9.064C42.63 8.784 42.634 8.588 42.634 8.476C42.634 8.34 42.61 8.24 42.562 8.176C42.514 8.104 42.418 8.068 42.274 8.068C41.842 8.068 41.51 8.144 41.278 8.296C41.054 8.44 40.942 8.716 40.942 9.124C40.942 9.892 40.934 10.472 40.918 10.864C40.902 11.248 40.894 11.508 40.894 11.644C40.894 11.828 41.034 11.92 41.314 11.92ZM47.5419 12.892C47.2779 12.892 47.0299 12.856 46.7979 12.784C46.5739 12.712 46.3779 12.628 46.2099 12.532V13.468C46.2099 13.756 46.1979 14.008 46.1739 14.224C46.1499 14.448 46.1379 14.616 46.1379 14.728C46.1379 14.808 46.1659 14.868 46.2219 14.908C46.2859 14.956 46.4379 15.044 46.6779 15.172L46.5339 15.496C46.0219 15.304 45.6259 15.128 45.3459 14.968C45.0739 14.816 44.9379 14.676 44.9379 14.548C44.9379 14.436 44.9499 14.26 44.9739 14.02C45.0059 13.788 45.0219 13.56 45.0219 13.336V9.328C45.0219 9.176 45.0259 8.976 45.0339 8.728C45.0499 8.48 45.0779 8.268 45.1179 8.092H44.6739L44.0499 7.264L44.1339 7.072H45.2619C45.2939 7.072 45.3619 7.128 45.4659 7.24C45.5699 7.344 45.6779 7.464 45.7899 7.6C45.9099 7.416 46.0819 7.268 46.3059 7.156C46.5379 7.044 46.7859 6.988 47.0499 6.988H47.2779C47.4539 6.988 47.6459 7.06 47.8539 7.204C48.0619 7.34 48.2579 7.512 48.4419 7.72C48.6259 7.92 48.7779 8.12 48.8979 8.32C49.0179 8.52 49.0779 8.684 49.0779 8.812C49.0779 9.036 49.0739 9.352 49.0659 9.76C49.0579 10.16 49.0539 10.636 49.0539 11.188C49.0539 11.708 48.9179 12.124 48.6459 12.436C48.3739 12.74 48.0059 12.892 47.5419 12.892ZM47.5659 8.104C47.1659 8.104 46.8459 8.164 46.6059 8.284C46.3659 8.396 46.2339 8.628 46.2099 8.98C46.2099 9.068 46.2099 9.144 46.2099 9.208V11.848C46.3539 11.88 46.5059 11.896 46.6659 11.896C47.0979 11.896 47.4059 11.796 47.5899 11.596C47.7739 11.396 47.8659 11.116 47.8659 10.756C47.8659 10.5 47.8699 10.232 47.8779 9.952C47.8859 9.672 47.8899 9.408 47.8899 9.16C47.8979 8.912 47.9019 8.708 47.9019 8.548C47.9019 8.436 47.8859 8.336 47.8539 8.248C47.8219 8.152 47.7259 8.104 47.5659 8.104Z" fill="#EC221F"/>
<defs>
<linearGradient id="paint0_linear_946_206" x1="40" y1="4" x2="40" y2="84" gradientUnits="userSpaceOnUse">
<stop stop-color="#FFA91F" stop-opacity="0.49"/>
<stop offset="1" stop-color="#EC221F" stop-opacity="0.56"/>
</linearGradient>
</defs>
</svg>
